<svg width="107" height="39" viewBox="0 0 107 39" fill="none" xmlns="http://www.w3.org/2000/svg">
<path d="M27.4113 38H1.42733V30.608H10.2753V10.112C8.09133 10.896 4.61933 11.736 1.53933 12.072L0.475328 5.408C6.24333 4.456 9.93933 3.056 12.4593 0.704H19.0673V30.608H27.4113V38ZM46.2068 31C49.6228 31 52.3668 28.872 52.3668 25.4C52.3668 22.096 50.0148 19.8 46.0388 19.8C43.2948 19.8 40.9428 20.92 39.2628 22.992L34.0548 20.864L35.3988 0.704H59.3668V8.712H42.3428L41.6148 14.984C43.4628 13.64 46.2068 13.136 48.4468 13.136C55.5028 13.136 61.3268 17.56 61.3268 25.288C61.3268 32.008 56.5668 38.672 46.4868 38.672C40.2148 38.672 35.1748 36.264 31.8708 30.664L38.9828 26.8C40.4948 29.656 43.0148 31 46.2068 31ZM84.9382 10C84.9382 15.432 80.6822 19.744 75.2502 19.744C69.7622 19.744 65.5062 15.432 65.5062 10C65.5062 4.512 69.7622 0.199999 75.2502 0.199999C80.6822 0.199999 84.9382 4.512 84.9382 10ZM99.3862 0.704L79.4502 38H73.0102L92.8902 0.704H99.3862ZM106.89 28.704C106.89 34.192 102.634 38.504 97.1462 38.504C91.7142 38.504 87.4582 34.192 87.4582 28.704C87.4582 23.272 91.7142 18.96 97.1462 18.96C102.634 18.96 106.89 23.272 106.89 28.704ZM79.3382 10C79.3382 7.648 77.6022 5.8 75.2502 5.8C72.8422 5.8 71.1062 7.648 71.1062 10C71.1062 12.352 72.8422 14.2 75.2502 14.2C77.6022 14.2 79.3382 12.352 79.3382 10ZM101.29 28.704C101.29 26.352 99.4982 24.56 97.1462 24.56C94.7942 24.56 93.0582 26.352 93.0582 28.704C93.0582 31.056 94.7942 32.904 97.1462 32.904C99.4982 32.904 101.29 31.056 101.29 28.704Z" fill="url(#paint0_linear_1824_7343)"/>
<defs>
<linearGradient id="paint0_linear_1824_7343" x1="-3.83398" y1="16" x2="109.166" y2="16" gradientUnits="userSpaceOnUse">
<stop stop-color="#ED7A5B"/>
<stop offset="1" stop-color="#FBC67C"/>
</linearGradient>
</defs>
</svg>
