<svg width="110" height="40" viewBox="0 0 110 40" fill="none" xmlns="http://www.w3.org/2000/svg">
<path d="M15.0173 32C18.4333 32 21.1773 29.872 21.1773 26.4C21.1773 23.096 18.8253 20.8 14.8493 20.8C12.1053 20.8 9.75331 21.92 8.07331 23.992L2.86531 21.864L4.20931 1.704H28.1773V9.712H11.1533L10.4253 15.984C12.2733 14.64 15.0173 14.136 17.2573 14.136C24.3133 14.136 30.1373 18.56 30.1373 26.288C30.1373 33.008 25.3773 39.672 15.2973 39.672C9.02531 39.672 3.98531 37.264 0.681313 31.664L7.79331 27.8C9.30531 30.656 11.8253 32 15.0173 32ZM63.9968 20.296C63.9968 30.04 60.4688 39.672 49.1568 39.672C37.9008 39.672 34.4848 30.04 34.4848 20.296C34.4848 10.608 37.9008 0.975999 49.1568 0.975999C60.4688 0.975999 63.9968 10.608 63.9968 20.296ZM54.9808 20.296C54.9808 13.744 53.9168 8.144 49.1568 8.144C44.3408 8.144 43.3888 13.744 43.3888 20.296C43.3888 26.792 44.3408 32.504 49.1568 32.504C53.9168 32.504 54.9808 26.792 54.9808 20.296ZM87.2722 11C87.2722 16.432 83.0162 20.744 77.5842 20.744C72.0962 20.744 67.8402 16.432 67.8402 11C67.8402 5.512 72.0962 1.2 77.5842 1.2C83.0162 1.2 87.2722 5.512 87.2722 11ZM101.72 1.704L81.7842 39H75.3442L95.2242 1.704H101.72ZM109.224 29.704C109.224 35.192 104.968 39.504 99.4802 39.504C94.0482 39.504 89.7922 35.192 89.7922 29.704C89.7922 24.272 94.0482 19.96 99.4802 19.96C104.968 19.96 109.224 24.272 109.224 29.704ZM81.6722 11C81.6722 8.648 79.9362 6.8 77.5842 6.8C75.1762 6.8 73.4402 8.648 73.4402 11C73.4402 13.352 75.1762 15.2 77.5842 15.2C79.9362 15.2 81.6722 13.352 81.6722 11ZM103.624 29.704C103.624 27.352 101.832 25.56 99.4802 25.56C97.1282 25.56 95.3922 27.352 95.3922 29.704C95.3922 32.056 97.1282 33.904 99.4802 33.904C101.832 33.904 103.624 32.056 103.624 29.704Z" fill="url(#paint0_linear_1824_7348)"/>
<defs>
<linearGradient id="paint0_linear_1824_7348" x1="-1.5" y1="17" x2="111.5" y2="17" gradientUnits="userSpaceOnUse">
<stop stop-color="#A057D0"/>
<stop offset="1" stop-color="#D4A1ED"/>
</linearGradient>
</defs>
</svg>
