<svg width="109" height="39" viewBox="0 0 109 39" fill="none" xmlns="http://www.w3.org/2000/svg">
<path d="M14.3503 31C17.7663 31 20.5103 28.872 20.5103 25.4C20.5103 22.096 18.1583 19.8 14.1823 19.8C11.4383 19.8 9.08632 20.92 7.40632 22.992L2.19832 20.864L3.54232 0.704H27.5103V8.712H10.4863L9.75832 14.984C11.6063 13.64 14.3503 13.136 16.5903 13.136C23.6463 13.136 29.4703 17.56 29.4703 25.288C29.4703 32.008 24.7103 38.672 14.6303 38.672C8.35832 38.672 3.31832 36.264 0.0143204 30.664L7.12632 26.8C8.63832 29.656 11.1583 31 14.3503 31ZM47.8738 31C51.2898 31 54.0338 28.872 54.0338 25.4C54.0338 22.096 51.6818 19.8 47.7058 19.8C44.9618 19.8 42.6098 20.92 40.9298 22.992L35.7218 20.864L37.0658 0.704H61.0338V8.712H44.0098L43.2818 14.984C45.1298 13.64 47.8738 13.136 50.1138 13.136C57.1698 13.136 62.9938 17.56 62.9938 25.288C62.9938 32.008 58.2338 38.672 48.1538 38.672C41.8818 38.672 36.8418 36.264 33.5378 30.664L40.6498 26.8C42.1618 29.656 44.6818 31 47.8738 31ZM86.6052 10C86.6052 15.432 82.3492 19.744 76.9172 19.744C71.4292 19.744 67.1732 15.432 67.1732 10C67.1732 4.512 71.4292 0.199999 76.9172 0.199999C82.3492 0.199999 86.6052 4.512 86.6052 10ZM101.053 0.704L81.1172 38H74.6772L94.5572 0.704H101.053ZM108.557 28.704C108.557 34.192 104.301 38.504 98.8132 38.504C93.3812 38.504 89.1252 34.192 89.1252 28.704C89.1252 23.272 93.3812 18.96 98.8132 18.96C104.301 18.96 108.557 23.272 108.557 28.704ZM81.0052 10C81.0052 7.648 79.2692 5.8 76.9172 5.8C74.5092 5.8 72.7732 7.648 72.7732 10C72.7732 12.352 74.5092 14.2 76.9172 14.2C79.2692 14.2 81.0052 12.352 81.0052 10ZM102.957 28.704C102.957 26.352 101.165 24.56 98.8132 24.56C96.4612 24.56 94.7252 26.352 94.7252 28.704C94.7252 31.056 96.4612 32.904 98.8132 32.904C101.165 32.904 102.957 31.056 102.957 28.704Z" fill="url(#paint0_linear_1824_7338)"/>
<defs>
<linearGradient id="paint0_linear_1824_7338" x1="-2.16699" y1="16" x2="110.833" y2="16" gradientUnits="userSpaceOnUse">
<stop stop-color="#0055B8"/>
<stop offset="1" stop-color="#3BA9D8"/>
</linearGradient>
</defs>
</svg>
