<svg width="132" height="96" viewBox="0 0 132 96" fill="none" xmlns="http://www.w3.org/2000/svg">
<path fill-rule="evenodd" clip-rule="evenodd" d="M127.238 60.451C127.345 61.6865 128.33 63.2622 130.049 63.2622H131.051C131.445 63.2622 131.75 62.9399 131.75 62.5638V40.5399C131.732 40.1639 131.427 39.8774 131.051 39.8774H127.954C127.578 39.8774 127.273 40.1818 127.255 40.5399V42.3305C125.357 39.9848 122.367 39.0179 119.359 39.0179C112.537 39.0179 106.986 44.5508 106.986 51.3907C106.986 58.2307 112.519 63.7635 119.359 63.7635C122.367 63.7635 125.644 62.5997 127.255 60.451H127.238ZM119.341 59.4304C114.99 59.4304 111.481 55.8313 111.481 51.3907C111.481 46.9501 115.008 43.3511 119.341 43.3511C123.674 43.3511 127.202 46.9501 127.202 51.3907C127.202 55.8313 123.674 59.4304 119.341 59.4304Z" fill="#0D0E10"/>
<path fill-rule="evenodd" clip-rule="evenodd" d="M103.047 61.203V49.815C103.047 43.3869 99.0004 39.0716 92.5544 39.0716C86.1083 39.0716 86.9499 40.8622 86.0546 42.3842C85.8577 41.1845 85.231 39.9311 83.2613 39.9311H82.2586C81.8647 39.9311 81.5603 40.2534 81.5603 40.6294V60.5047V62.6355C81.5782 63.0115 81.8826 63.298 82.2586 63.298H85.3563C85.41 63.298 85.4458 63.298 85.4995 63.298C85.5175 63.298 85.5354 63.298 85.5533 63.298C85.5712 63.298 85.607 63.298 85.6249 63.2801C85.6607 63.2801 85.6786 63.2622 85.6965 63.2443C85.6965 63.2443 85.7144 63.2443 85.7323 63.2264C85.7681 63.2084 85.786 63.1905 85.8218 63.1547C85.8577 63.1189 85.8756 63.0831 85.9114 63.0652C85.983 62.9578 86.0367 62.8324 86.0367 62.6892V49.6897C86.0367 46.2339 88.83 43.4406 92.2679 43.4406C95.7058 43.4406 98.499 46.2339 98.499 49.6897V60.5584C98.499 60.5584 98.499 60.5763 98.499 60.5942V62.7071C98.517 63.0831 98.8214 63.3696 99.1974 63.3696H102.295C102.349 63.3696 102.385 63.3696 102.438 63.3696C102.456 63.3696 102.474 63.3696 102.492 63.3696C102.51 63.3696 102.546 63.3696 102.564 63.3517C102.582 63.3517 102.617 63.3338 102.635 63.3159C102.635 63.3159 102.671 63.3159 102.671 63.298C102.707 63.2801 102.725 63.2622 102.743 63.2264C102.743 63.2264 102.743 63.2264 102.761 63.2264C102.796 63.1905 102.814 63.1726 102.832 63.1368C102.904 63.0294 102.958 62.904 102.958 62.7608V61.3284" fill="#0D0E10"/>
<path fill-rule="evenodd" clip-rule="evenodd" d="M70.7631 60.451C70.8705 61.6865 71.8554 63.2622 73.5743 63.2622H74.577C74.9709 63.2622 75.2753 62.9399 75.2753 62.5638V40.5399C75.2574 40.1639 74.953 39.8774 74.577 39.8774H71.4793C71.1033 39.8774 70.7989 40.1818 70.781 40.5399V42.3305C68.883 39.9848 65.8928 39.0179 62.8846 39.0179C56.0626 39.0179 50.5297 44.5508 50.5297 51.3907C50.5297 58.2307 56.0626 63.7635 62.8846 63.7635C65.8928 63.7635 69.1695 62.5997 70.781 60.451H70.7631ZM62.8667 59.4304C58.5156 59.4304 55.0061 55.8313 55.0061 51.3907C55.0061 46.9501 58.5336 43.3511 62.8667 43.3511C67.1999 43.3511 70.7273 46.9501 70.7273 51.3907C70.7273 55.8313 67.1999 59.4304 62.8667 59.4304Z" fill="#0D0E10"/>
<path fill-rule="evenodd" clip-rule="evenodd" d="M32.1586 57.2996C34.2356 58.732 36.4918 59.4304 38.6583 59.4304C40.8249 59.4304 42.8662 58.356 42.8662 56.4938C42.8662 54.6316 38.2107 53.611 35.2742 52.6083C32.3376 51.6056 29.8309 49.5464 29.8309 46.216C29.8309 41.1129 34.3789 39 38.6046 39C42.8304 39 44.0658 39.8953 45.8564 41.1487C46.4831 41.6142 46.1071 42.1514 46.1071 42.1514L44.3882 44.6045C44.1912 44.8731 43.851 45.1237 43.3675 44.8193C42.8841 44.5149 41.183 43.3153 38.6046 43.3153C36.0262 43.3153 34.4684 44.5149 34.4684 46.0011C34.4684 47.4873 36.4918 48.3288 38.8732 48.9376C43.0094 50.0478 47.5216 51.3907 47.5216 56.458C47.5216 61.5253 43.3138 63.7277 38.6762 63.7277C34.0387 63.7277 32.1586 62.725 29.6518 60.8807C29.1325 60.3614 29.4906 59.878 29.4906 59.878L31.1917 57.4428C31.5319 56.9952 31.9795 57.1384 32.1765 57.2817" fill="#0D0E10"/>
<path fill-rule="evenodd" clip-rule="evenodd" d="M20.2334 60.451C20.3408 61.6865 21.3256 63.2622 23.0446 63.2622H24.0473C24.4412 63.2622 24.7456 62.9399 24.7456 62.5638V40.5399C24.7277 40.1639 24.4233 39.8774 24.0473 39.8774H20.9496C20.5736 39.8774 20.2692 40.1818 20.2513 40.5399V42.3305C18.3533 39.9848 15.3631 39.0179 12.3549 39.0179C5.53285 39.0179 0 44.5508 0 51.3907C0 58.2307 5.53285 63.7635 12.3549 63.7635C15.3631 63.7635 18.6398 62.5997 20.2513 60.451H20.2334ZM12.337 59.4304C7.98592 59.4304 4.47641 55.8313 4.47641 51.3907C4.47641 46.9501 8.00383 43.3511 12.337 43.3511C16.6702 43.3511 20.1976 46.9501 20.1976 51.3907C20.1976 55.8313 16.6702 59.4304 12.337 59.4304Z" fill="#0D0E10"/>
</svg>
