<svg width="97" height="96" viewBox="0 0 97 96" fill="none" xmlns="http://www.w3.org/2000/svg">
<path d="M31.5 77C39.5 68.8 47.5 61.4575 47.5 52.4C47.5 43.3425 40.3366 36 31.5 36C22.6634 36 15.5 43.3425 15.5 52.4C15.5 61.4575 23.5 68.8 31.5 77Z" stroke="black" stroke-width="3" stroke-linecap="round" stroke-linejoin="round"/>
<path d="M70.5 35C74.5 31 78.5 27.4183 78.5 23C78.5 18.5817 74.9183 15 70.5 15C66.0817 15 62.5 18.5817 62.5 23C62.5 27.4183 66.5 31 70.5 35Z" stroke="black" stroke-width="3" stroke-linecap="round" stroke-linejoin="round"/>
<circle cx="31.5" cy="51" r="8" stroke="black" stroke-width="3"/>
<circle cx="22.5" cy="21" r="3" stroke="black" stroke-width="3"/>
<circle cx="54.5" cy="19" r="2" fill="black"/>
<path d="M39.5 23L43.5 27" stroke="black" stroke-width="3" stroke-linecap="round" stroke-linejoin="round"/>
<path d="M43.5 23L39.5 27" stroke="black" stroke-width="3" stroke-linecap="round" stroke-linejoin="round"/>
<circle cx="70.5" cy="23" r="3" stroke="black" stroke-width="3"/>
<path d="M31.5 81.9997H71.75C76.75 81.9997 80.5 79 80.5 72.4997C80.5 66.5 76.75 64 71.75 64C65.25 64 59.5 62.5 59.5 52.5C59.5 42 64.5 40.5 70 40.5" stroke="black" stroke-width="3" stroke-linecap="round" stroke-linejoin="round" stroke-dasharray="6 6"/>
</svg>
