<svg height="271" viewBox="0 0 271 271" width="271" xmlns="http://www.w3.org/2000/svg" xmlns:xlink="http://www.w3.org/1999/xlink"><mask id="a" fill="#fff"><path d="m.00036953.155h254.98557647v205.845h-254.98557647z" fill="#fff" fill-rule="evenodd"/></mask><g fill="#1d1d1b" fill-rule="evenodd" transform="translate(7.492188 31.519531)"><path d="m185.8424 145.2371c.649-2.234 1.299-4.39 1.9-6.56.938-3.389 1.825-6.794 2.771-10.181.419-1.5 1.289-2.583 2.849-3.143 1.854-.665 3.67-1.452 5.456-2.287 1.414-.662 2.757-.521 4.065.138 1.414.712 2.784 1.512 4.157 2.303 3.659 2.105 7.311 4.225 10.768 6.225 4.319-4.317 8.498-8.496 12.743-12.738-1.018-1.838-2.094-3.817-3.205-5.775-1.718-3.031-3.484-6.036-5.182-9.079-.741-1.328-.833-2.709-.152-4.151.842-1.782 1.659-3.587 2.323-5.44.545-1.516 1.542-2.409 3.022-2.819 3.356-.931 6.724-1.815 10.079-2.747 2.196-.61 4.378-1.27 6.526-1.896v-17.804c-2.206-.64-4.362-1.29-6.531-1.89-3.39-.938-6.797-1.815-10.18-2.778-1.247-.355-2.3-1.03-2.813-2.347-.804-2.068-1.628-4.13-2.499-6.17-.572-1.339-.485-2.632.157-3.874.758-1.469 1.612-2.889 2.424-4.33 1.934-3.437 3.857-6.88 5.814-10.303.292-.511.176-.799-.206-1.167-1.065-1.024-2.098-2.081-3.139-3.129-2.942-2.965-5.883-5.932-8.833-8.906-2.083 1.151-4.064 2.223-6.023 3.332-3.032 1.716-6.041 3.472-9.077 5.181-1.49.838-3.001 1.024-4.633.229-1.675-.816-3.428-1.477-5.16-2.175-1.139-.459-2.034-1.19-2.431-2.351-.59-1.726-1.109-3.479-1.596-5.238-1.125-4.068-2.213-8.145-3.315-12.216h-17.866c-.636 2.177-1.292 4.331-1.893 6.5-.94 3.389-1.818 6.796-2.773 10.181-.431 1.53-1.34 2.651-2.929 3.217-1.89.674-3.701 1.574-5.606 2.194-.845.276-1.949.392-2.739.082-1.787-.702-3.48-1.665-5.16-2.612-3.706-2.088-7.38-4.233-11.078-6.361-4.125 4.133-8.142 8.143-12.123 12.189-.197.2-.226.785-.083 1.063.915 1.785 1.879 3.548 2.869 5.294 1.735 3.063 3.517 6.1 5.244 9.168.805 1.429.934 2.879.161 4.435-.861 1.732-1.629 3.521-2.292 5.338-.568 1.557-1.65 2.405-3.16 2.82-3.357.923-6.725 1.81-10.079 2.743-2.19.609-4.364 1.273-6.506 1.9v17.778c2.175.636 4.329 1.292 6.498 1.893 3.389.94 6.794 1.823 10.182 2.771 1.457.407 2.537 1.247 3.099 2.757.675 1.814 1.445 3.597 2.275 5.346.665 1.401.561 2.731-.055 4.071-.308.67-.687 1.309-1.05 1.953-2.356 4.168-4.703 8.341-7.091 12.49-.381.663-.353 1.057.213 1.61 2.816 2.754 5.58 5.562 8.368 8.345 1.16 1.158 2.331 2.305 3.525 3.483 2.04-1.125 3.992-2.176 5.92-3.269 3.031-1.718 6.036-3.48 9.071-5.19 1.394-.786 2.818-.927 4.338-.19 1.805.876 3.653 1.675 5.524 2.399 1.379.533 2.231 1.51 2.621 2.84.783 2.665 1.434 5.369 2.178 8.046.818 2.943 1.679 5.872 2.52 8.802zm-83.85-83.184c-.267-.095-.384-.139-.502-.179-4.318-1.441-8.749-2.404-13.263-2.923-7.256-.834-14.485-.632-21.666.795-15.816 3.144-28.978 10.844-39.316 23.201-9.435 11.278-14.564 24.35-15.632 39.023-.501 6.907.003 13.726 1.647 20.448 3.466 14.166 10.804 25.989 21.846 35.467 10.978 9.423 23.748 14.812 38.135 16.243 7.155.712 14.285.311 21.331-1.223 15.4-3.353 28.234-11.005 38.353-23.092 7.957-9.501 12.787-20.464 14.787-32.679.251-1.537.376-3.094.596-4.958-1.06.859-1.847 1.486-2.623 2.126-2.961 2.445-5.893 4.924-8.886 7.328-1.528 1.227-3.305 1.489-5.054.544-1.194-.643-2.367-1.416-3.345-2.347-2.732-2.601-5.36-5.31-8.023-7.983-1.991-1.998-4.103-3.893-5.925-6.036-2.622-3.085-2.711-5.559-.393-8.327 4.115-4.912 8.104-9.929 12.207-14.85.895-1.075 1.409-2.019.529-3.319-.291-.429-.484-.947-.625-1.452-.191-.685-.617-.933-1.287-1.002-3.991-.415-7.979-.872-11.97-1.282-3.082-.317-6.174-.547-9.253-.89-1.95-.218-3.405-1.267-3.973-3.17-.408-1.365-.711-2.817-.73-4.234-.08-5.923-.029-11.848-.036-17.773-.003-2.856.329-5.574 3.071-7.456zm57.326 77.619c-.843 3.33-1.515 6.794-2.597 10.124-7.838 24.128-23.675 40.869-47.082 50.464-8.1 3.322-16.596 4.997-25.341 5.57-37.131 2.434-70.132-21.484-80.756-55.803-2.734-8.834-3.887-17.88-3.453-27.103 1.69-35.985 26.363-65.171 60.216-73.644 8.681-2.172 17.506-2.897 26.423-2.149 12.916 1.083 24.903 5.038 35.926 11.883.406.252.874.548 1.322.564 1.034.035 1.814-.197 2.353-1.407.842-1.89 1.174-3.242-.47-5.094-4.135-4.656-7.891-9.646-11.876-14.438-2.432-2.923-2.003-5.471.177-7.806 5.001-5.358 10.291-10.449 15.524-15.586.675-.663 1.668-1.06 2.578-1.411 1.778-.685 3.392-.217 4.828.967 3.422 2.824 6.831 5.663 10.269 8.468 2.072 1.691 4.176 3.344 6.3 4.971.261.2.76.244 1.096.157.642-.166 1.226-.581 1.871-.709 1.388-.275 1.646-1.202 1.763-2.425.647-6.764 1.334-13.524 2.049-20.281.278-2.624 2.051-4.166 5.225-4.671.556-.089 1.123-.139 1.686-.14 6.383-.01 12.767-.047 19.15.026 1.276.015 2.582.349 3.811.737 1.853.585 2.915 1.991 3.123 3.897.422 3.85.718 7.713 1.114 11.566.342 3.327.732 6.65 1.157 9.966.046.354.417.746.742.966.429.29 1.008.358 1.439.646 1.394.934 2.428.433 3.59-.554 3.112-2.643 6.327-5.164 9.492-7.746 1.856-1.514 3.712-3.028 5.533-4.585 2.806-2.399 4.997-1.709 7.505-.073.555.362 1.043.841 1.516 1.312 4.42 4.406 8.857 8.798 13.222 13.257.895.915 1.631 2.036 2.237 3.171.994 1.862.715 3.695-.608 5.332-1.816 2.247-3.668 4.464-5.491 6.705-2.089 2.566-4.163 5.146-6.243 7.72-.045.055-.071.131-.126.169-2.675 1.874-1.608 4.067-.487 6.222.152.294.633.537.99.583 2.515.326 5.033.622 7.555.875 4.555.456 9.117.838 13.668 1.327 2.587.277 4.139 2.131 4.594 5.298.1.695.133 1.405.134 2.109.01 6.066.051 12.133-.028 18.198-.018 1.418-.328 2.868-.735 4.234-.554 1.86-1.975 2.928-3.88 3.14-3.814.424-7.642.726-11.461 1.115-3.292.335-6.579.721-9.868 1.086-.105.011-.209.037-.31.068-.957.296-2.238 4.044-1.611 4.816 3.78 4.642 7.579 9.268 11.364 13.906.735.9 1.468 1.806 2.146 2.75 1.127 1.565 1.333 3.285.426 4.986-.605 1.137-1.321 2.273-2.215 3.187-4.39 4.487-8.832 8.924-13.315 13.319-.889.873-1.98 1.586-3.078 2.19-1.896 1.043-3.756.762-5.421-.587-2.326-1.886-4.606-3.827-6.93-5.712-3.198-2.596-6.407-5.178-9.648-7.718-.296-.233-.886-.237-1.293-.145-.609.14-1.158.542-1.767.686-1.358.321-1.72 1.205-1.841 2.496-.635 6.766-1.329 13.525-2.044 20.282-.278 2.622-2.054 4.166-5.228 4.668-.59.093-1.194.14-1.791.141-6.313.011-12.627.048-18.939-.028-1.311-.015-2.654-.344-3.916-.738-1.854-.58-2.902-1.993-3.122-3.897-.353-3.043-.601-6.099-.891-9.149-.09-.945-.175-1.891-.252-2.721z" mask="url(#a)" transform="translate(0 .845)"/><path d="m94.7345 152.2267c1.465 2.585 3.04 5.364 4.628 8.168-.09.129-.145.268-.247.344-4.802 3.562-10.18 5.039-16.109 4.252-1.975-.263-3.948-.716-5.852-1.306-5.957-1.847-9.273-6.069-10.198-12.11-.409-2.666-.432-5.407-.448-8.114-.052-9.097-.022-18.195-.023-27.292v-1.348h-13.867v-9.65h13.793v-15.678h12.681c.022.13.073.294.074.458.047 13.398.114 26.797.118 40.194.001 4.019-.206 8.036-.259 12.055-.033 2.432.104 4.86.981 7.175 1.217 3.212 3.901 4.949 7.297 4.451 2.448-.359 4.849-1.032 7.431-1.599"/><path d="m100.9015 117.1251c-4.25-.013-7.342-3.156-7.328-7.451.013-3.973 3.426-7.368 7.36-7.322 4.112.047 7.439 3.423 7.409 7.518-.029 4.142-3.235 7.267-7.441 7.255"/><path d="m192.8194 79.108c-.02-8.617-7.157-15.738-15.771-15.735-8.613.004-15.747 7.131-15.76 15.746-.013 8.652 7.177 15.825 15.824 15.786 8.621-.038 15.727-7.185 15.707-15.797m-15.721-26.314c14.57.003 26.304 11.765 26.301 26.364-.002 14.583-11.765 26.342-26.337 26.327-14.701-.014-26.368-11.755-26.354-26.522.012-14.462 11.822-26.173 26.39-26.169"/></g></svg>