<svg height="48" viewBox="0 0 75 48" width="75" xmlns="http://www.w3.org/2000/svg"><g fill="none" fill-rule="evenodd" transform="translate(.909091)"><path d="m0 48h73.3584906v-48h-73.3584906z" fill="#768190"/><g fill="#fff"><path d="m35.4695613 10.8679245 1.6618199-1.0644361 1.6620976 1.0644361-.6326246-1.72132993 1.6882024-1.06467987h-2.0808851l-.6367903-1.74229206-.6367903 1.74424202-2.0794966-.00194996 1.6868139 1.06467987z"/><path d="m28.2253891 12.6792453 1.6618199-1.063978 1.6609868 1.063978-.6315138-1.7205891 1.6870916-1.06422156h-2.0808851l-.6367903-1.74349124-.6365126 1.74544037-2.0797743-.00194913 1.6868139 1.06422156z"/><path d="m23.5471698 14.490566-.636953 1.7454404-2.0800281-.0019491 1.687245 1.0639779-.6325086 1.7208327 1.6622447-1.0639779 1.6622447 1.0639779-.6325086-1.7208327 1.687245-1.0639779h-2.080028z"/><path d="m21.7364045 26.1058334 1.660794 1.0639779-.6312684-1.720589 1.6869001-1.063978h-2.0796029l-.6368228-1.7437349-.6368228 1.7473895-2.0807138-.0036546 1.688011 1.063978-.6323792 1.720589z"/><path d="m24.1841229 31.6302837-.6369531-1.7434912-.636953 1.7454403-2.0800281-.0019491 1.687245 1.063978-.6325086 1.7208326 1.6622447-1.065927 1.6622447 1.065927-.6325086-1.7208326 1.687245-1.063978z"/><path d="m30.5230598 37.9687072-.6368228-1.7422921-.6357119 1.744242-2.0807138-.0019499 1.6869001 1.0644361-.6312683 1.7215737 1.6619048-1.0646799 1.6607939 1.0646799-.6312683-1.7215737 1.6869001-1.0644361z"/><path d="m37.7683429 39.7812271-.6368229-1.7434913-.6357119 1.7454404-2.0807138-.0019491 1.6869001 1.063978-.6312683 1.7208326 1.6619048-1.0642216 1.660794 1.0642216-.6323793-1.7208326 1.688011-1.063978z"/><path d="m45.9188608 37.9687072-.6358419-1.7422921-.6380642 1.744242-2.078917-.0019499 1.6861339 1.0644361-.6313974 1.7215737 1.6622447-1.0646799 1.6622446 1.0646799-.6336196-1.7215737 1.6883561-1.0644361z"/><path d="m52.2607057 31.6302837-.6380642-1.7434912-.6380642 1.7454403-2.0789169-.0019491 1.6883561 1.063978-.6336197 1.7208326 1.6622447-1.065927 1.6625225 1.065927-.6338975-1.7208326 1.6883561-1.063978z"/><path d="m56.1509434 24.3850007h-2.0802885l-.6378033-1.7434913-.635582 1.7454404-2.0802885-.0019491 1.687666 1.0639779-.631417 1.7208327 1.6596215-1.0659271 1.6615652 1.0659271-.6311394-1.7208327z"/><path d="m49.9603429 19.0188679 1.6621597-1.0644361 1.6624375 1.0644361-.6335873-1.7213299 1.6882698-1.0627299h-2.0790884l-.6380316-1.7442421-.6377538 1.746192-2.0790884-.0019499 1.6882698 1.0627299z"/><path d="m45.2819082 8.1509434-.635582 1.74544037-2.0802885-.00389825 1.6854446 1.06592708-.6311393 1.7208327 1.6637865-1.0659271 1.6593439 1.0659271-.6311394-1.7208327 1.687666-1.06592708h-2.0825098z"/></g></g></svg>