<svg height="40" viewBox="0 0 138 40" width="138" xmlns="http://www.w3.org/2000/svg"><g fill="#768190" fill-rule="evenodd" transform="translate(.454545)"><path d="m69.0342648 30.5454545h-4.4817277c-.0180622 0-.0315128-.0045219-.0434261-.019218l-3.8633862-4.6191239-3.8641547 4.6191239c-.0103761.0146961-.028054.019218-.0422732.019218h-3.5878417c-.0257482 0-.0449633-.0113047-.0549552-.0324069-.0107604-.0158267-.0049959-.038813.008839-.0565238l5.6903569-6.8495525-5.6281-6.7851154c-.0134506-.0188413-.0134506-.0425813-.0061489-.0629299.0092233-.012812.0299756-.0316533.0476535-.0316533h4.4851864c.0138349 0 .0342029.0101743.0426575.0275083l3.3864676 4.114178 3.4494931-4.1183231c.0099918-.0131889.0265168-.0233632.0430418-.0233632h3.6558631c.0207523 0 .0434261.0188413.0507278.0316533.0107605.0203486.0053803.0440886-.0073017.0629299l-5.3371836 6.2846914 6.0996384 7.3499765c.0149878.0177108.0176779.0406971.0057645.0565238-.0084546.0211022-.0284383.0324069-.0491906.0324069"/><path d="m98.7983665 25.2154886c-.0070834.0134271-.0264695.0230179-.0477196.0230179h-9.9521479c.207282 2.3834984 1.7119409 3.7430861 4.1497418 3.7430861 1.5001852 0 3.0917087-.529027 5.3431049-1.7597147.0365353-.0203324.082018.0149616.082018.0579283l-.0070833 3.1461565c-.0044737.028005-.0145396.0441175-.0301976.0491047-2.0944434.910356-4.1996983 1.5249326-5.8482617 1.5249326-4.2850716 0-7.396912-3.2094556-7.396912-7.6365555 0-4.4221126 3.1118404-7.6361718 7.396912-7.6361718 3.9077886 0 6.4212698 2.7099683 6.4212698 6.4350237 0 .6030677-.1055051 2.0067729-.1107244 2.0531922m-6.3105454-5.439118c-1.9240695 0-3.2412052 1.2011482-3.6199796 3.2957725h6.5547355v-.1377234c0-1.6722468-1.2000735-3.1580491-2.9347559-3.1580491"/><path d="m117.116751 31.3836636c-.035521 0-.056911-.0219909-.056911-.0562818v-13.5572091c0-.0257182.018716-.0477091.04507-.0529272h3.685044c.026737.0052181.043924.027209.043924.0529272v13.5572091c0 .0342909-.023299.0562818-.054236.0562818zm1.834883-16.4902c-1.252793 0-2.268395-.9772909-2.268395-2.1782181 0-1.2352182 1.015602-2.2423273 2.268395-2.2423273 1.251265 0 2.264193 1.0071091 2.264193 2.2423273 0 1.2009272-1.012928 2.1782181-2.264193 2.1782181z"/><path d="m75.3907338 17.1641182c-1.0392832 0-2.0862054.1811454-3.1866004.5508909h-3.6667102c-.0309379 0-.0538549.0275818-.0538549.0544182v22.2305727c1.1095619-.1438727 2.4586057-.5296455 3.7858784-1.4461818l-.0030556-6.7620182c.8994899.1271 1.647346.2068636 2.3669379.2068636 5.0207194 0 8.2695775-2.9341091 8.2695775-7.4769091 0-4.3310909-3.092641-7.3576363-7.5121727-7.3576363m-.9980327 12.1784909c-.6691746 0-1.347898-.0905727-2.12631-.2940818l.0045834-8.6998273c.9140039-.2836455 1.7118953-.4159636 2.4994742-.4159636 2.552565 0 4.2659882 1.8349363 4.2659882 4.5674 0 2.9426818-1.8226606 4.8424727-4.6437358 4.8424727"/><path d="m109.83332 9.51300971v7.39339809c-1.03082-.3165049-1.937956-.4605826-2.852045-.4605826-4.187683 0-7.3449114 3.3479612-7.3449114 7.7968932 0 4.4198059 2.7872754 7.6283496 6.6203734 7.6283496 1.327954 0 2.575037-.3518447 4.035823-1.149903l-.005489 1.278835c.964952-.1972816 2.072983-.6085437 3.167474-1.4314563v-22.5685437c-1.072535.14990291-2.344502.53242718-3.621225 1.51300971m0 18.41786409c-1.10181.6104854-2.080668.9029126-3.003173.9029126-2.178737 0-3.484003-1.6314563-3.484003-4.367767 0-3.1607767 1.665705-5.208932 4.242572-5.208932.710998 0 1.404432.1833009 2.244604.5864077z"/><path d="m137.454545 17.0957406c0-.0869676-.071725-.156389-.153698-.156389l-2.849634.0057215c-.088193 0-.154795.0736173-.154795.1605849v.5019707h-.071726c-1.315216-.5988557-2.442335-.880356-3.546764-.880356-3.945648 0-7.041564 3.4134775-7.041564 7.7813096 0 4.4151304 2.769125 7.3705023 6.890427 7.3705023 1.098209 0 2.515524-.0762874 3.834765-1.6638271v1.7847425c.936826-.2063573 2.03906-.6179275 3.0875-1.4048315zm-3.62837 10.8842975c-1.064908.6389066-1.976849.9482518-2.789985.9482518-2.33255 0-3.727176-1.5993643-3.727176-4.2945963 0-3.0587413 1.643105-5.1143039 4.090928-5.1143039.659072 0 1.449885.2609027 2.426233.7979657z"/><path d="m69.0346544 30.5454545h-4.4824195c-.0180618 0-.0322808-.0041451-.0441939-.0173344l-3.8610141-4.6203803-3.8648571 4.6203803c-.010376.0131893-.0295907.0173344-.0445782.0173344h-3.5893174c-.0219048 0-.0399667-.0097977-.0518799-.0316541-.0099916-.016204-.0057644-.0391909.0080702-.0569022l5.6894908-6.848232-5.6249292-6.7871846c-.0161404-.0199723-.0161404-.0403214-.0084545-.0606705.0084545-.0146966.0299751-.0335384.0503427-.0335384h4.4820352c.0134503 0 .033818.0101746.0430411.027509l3.3879466 4.1157976 3.4471282-4.1203196c.0107603-.0128124.027285-.022987.0449625-.022987h3.6546476c.0222891 0 .0426568.0188418.0522642.0335384.0084544.0203491.0053801.0433361-.0096074.0606705l-5.3363235 6.2852397 6.0987652 7.3501769c.0165247.0177113.0199833.0406982.0080702.0569022-.0107603.0218564-.0288221.0316541-.0491898.0316541"/><path d="m98.7983426 25.2137409c-.0070849.0134268-.0264752.0241682-.0477299.0241682h-9.9513133c.203225 2.3822876 1.7093274 3.7426084 4.1476546 3.7426084 1.500509 0 3.0923761-.5274791 5.3461228-1.7581359.0354245-.0222501.0816629.0134267.0816629.0579268l-.007085 3.1441593c-.0037289.0276208-.0145427.0441165-.0316956.0491035-2.0926582.9107168-4.1994863 1.5264288-5.8495242 1.5264288-4.2871154 0-7.3955258-3.209375-7.3955258-7.6378981 0-4.4208507 3.1084104-7.6348292 7.3955258-7.6348292 3.9101237 0 6.422656 2.7072148 6.422656 6.4337112 0 .6030525-.1055278 2.0055716-.1107483 2.052757m-6.3119077-5.4385977c-1.9244849 0-3.2433965 1.201118-3.6207611 3.2968406h6.5561506v-.13772c0-1.6737393-1.199214-3.1591206-2.9353895-3.1591206"/><path d="m109.832048 9.51249899v7.39435321c-1.029302-.3180325-1.93639-.458992-2.851894-.458992-4.185997 0-7.3437904 3.346137-7.3437904 7.7947092 0 4.4198366 2.7863964 7.6292856 6.6207544 7.6292856 1.32642 0 2.573437-.3518162 4.034145-1.1498099l-.005488 1.2779549c.966365-.1984305 2.073971-.6092711 3.16877-1.4305639v-22.5694361c-1.072478.15105574-2.345109.53354907-3.622497 1.51249899m0 18.41948061c-1.09919.6084945-2.079094.9028396-3.003014.9028396-2.178621 0-3.483818-1.6328776-3.483818-4.3689669 0-3.1589677 1.667446-5.2081223 4.243811-5.2081223.71096 0 1.403992.1809562 2.243021.585972z"/><path d="m42.4574487 27.8977238 9.1789149-.0011153c-.1391032 1.0015707-.4857212 2.1789926-1.2811942 3.3761188h-9.5513772c-1.1679353 0-2.128736-.8859477-2.2450354-2.0087182-.0026605-.0141276-.0098817-.0297423-.0133023-.0442416v-17.709288c.0034206-.0130122.0106418-.0304858.0133023-.0434981.1162994-1.1238858 1.0771001-2.01243595 2.2450354-2.01243595.0380063 0 .0733523.00706379.1071779.00706379l10.70449-.00408956c-.1394833 1.00342962-.4861012 2.20799142-1.2808141 3.39916912h-7.8771973v4.8201057h7.797764c.0338256 0 .0577696.0256527.0577696.0513054v3.3460048c0 .0256527-.023944.052049-.0577696.052049h-7.797764z"/><path d="m19.2323713 12.3414177-.6620514-1.8308636-5.6162701-7.33455049 1.0080291-.24559463 9.6854824 8.17970672 5.6976543-1.59340615c.6700006-.16755176 1.4285774-.2045389 2.0096231-.20010045-1.7912105-3.77564756-5.0692922-6.8733208-9.3959059-8.38128662-8.5548092-2.97746502-17.96131393 1.38960696-21.00432768 9.75203012-.94065048 2.5876206-1.16322693 5.2551333-.7684187 7.7939308l13.65059858-4.6333794z"/><path d="m31.7916349 10.9090909c-.5042607.3203416-1.2406715.7489729-1.9751794.9821544l-5.7436238 1.6220829-3.8304779 12.1944864-.9948206.3226055.8106228-9.3144309-.4540249-1.9329915-5.3794144 1.5236033-14.2247167 3.3184971c1.13030497 5.4246769 5.00302662 10.1520731 10.6511263 12.1476992 8.6036378 3.0385284 18.0540529-1.4190867 21.1165324-9.9441718 1.317928-3.6735518 1.2326794-7.5063311.0239762-10.9195346"/></g></svg>