<svg height="40" viewBox="0 0 128 40" width="128" xmlns="http://www.w3.org/2000/svg"><g fill="#768190" fill-rule="evenodd"><path d="m16.0702716 14.0115569v4.2090053h10.3501223c-.3171698 2.3608265-1.1269864 4.0884399-2.3588557 5.3034054-1.5137419 1.4712895-3.8725976 3.0793177-7.9912666 3.0793177-6.37163323 0-11.35306447-4.9956207-11.35306447-11.1885632 0-6.19343265 4.98143124-11.18856324 11.35306447-11.18856324 3.4323922 0 5.9495807 1.31690697 7.7976367 3.01070322l3.0451324-2.9597325c-2.5696298-2.42944097-6.0196706-4.27712958-10.8427691-4.27712958-8.73048892 0-16.0702716 6.91192373-16.0702716 15.3975685 0 8.4856447 7.33978268 15.3970783 16.0702716 15.3970783 4.7172072 0 8.2731393-1.5055967 11.0540476-4.3109467 2.8515025-2.7715329 3.7490577-6.6894169 3.7490577-9.837349 0-.9753051-.07009-1.8819958-.228927-2.6347942zm28.5086758 12.9421997c-3.1461328 0-5.8631543-2.5616759-5.8631543-6.2191884 0-3.6929436 2.7170215-6.2191884 5.8631543-6.2191884 3.1456206 0 5.8626422 2.5262448 5.8626422 6.2191884 0 3.6575125-2.7170216 6.2191884-5.8626422 6.2191884zm0-16.4846202c-5.7376982 0-10.4210527 4.3109651-10.4210527 10.2654318 0 5.9013199 4.6833545 10.2654318 10.4210527 10.2654318 5.7376981 0 10.4210526-4.3463963 10.4210526-10.2654318 0-5.9544667-4.6833545-10.2654318-10.4210526-10.2654318z"/><path d="m88.7592843 26.6605279c-3.0401583 0-5.3549143-2.6785349-5.3549143-6.2855535 0-3.6607325 2.314756-6.2855535 5.3549143-6.2855535 3.0050263 0 5.3544195 2.6785349 5.3544195 6.3213628.0173186 3.6249233-2.3493932 6.2497442-5.3544195 6.2497442zm5.060498-14.3390628h-.1553727c-.9841919-1.2144465-2.8842908-2.3214651-5.2851451-2.3214651-5.0090369 0-9.3792645 4.5175977-9.3792645 10.3749744 0 5.8215674 4.3702276 10.3749744 9.3792645 10.3749744 2.4008543 0 4.3009532-1.1070186 5.2851451-2.3572744h.1553727v1.4466954c0 3.9640884-2.0554717 6.0891139-5.3544195 6.0891139-2.694281 0-4.3697328-1.999693-5.0609928-3.6965418l-3.8343403 1.6431348c1.1054221 2.7496419 4.0243502 6.1249233 8.8953331 6.1249233 5.1644096 0 9.5346372-3.1430325 9.5346372-10.8036628v-18.6607325h-4.1802177z"/><path d="m67.5 26.8612988c-3.1699671 0-5.9070562-2.6202111-5.9070562-6.3612988 0-3.7773285 2.7370891-6.3612988 5.9070562-6.3612988s5.9075721 2.5839703 5.9075721 6.3612988c0 3.7410877-2.737605 6.3612988-5.9075721 6.3612988zm0-16.8612988c-5.7811655 0-10.5 4.4094719-10.5 10.5 0 6.0361669 4.7188345 10.5 10.5 10.5s10.5-4.4457127 10.5-10.5c0-6.0905281-4.7188345-10.5-10.5-10.5z"/><path d="m101 32h4v-31h-4z"/><path d="m118.899211 13.9398945c1.82707 0 3.388337.957793 3.902661 2.3131995l-9.313735 3.9217741c0-4.4099896 3.069172-6.2349736 5.411074-6.2349736zm.319165 12.9214043c-2.306326 0-3.938237-1.0659978-5.002969-3.1803906l13.784593-5.801637-.46096-1.1923228c-.851786-2.3494404-3.477277-6.6869484-8.8172-6.6869484-5.304855 0-9.72184 4.246906-9.72184 10.5 0 5.8917213 4.36413 10.5 10.218376 10.5 4.718872 0 7.45109-2.9458607 8.586466-4.6445195l-3.512853-2.3856812c-1.170443 1.7348997-2.767287 2.8914995-5.073613 2.8914995z"/></g></svg>