<?xml version="1.0" encoding="utf-8"?>
<!-- Generator: Adobe Illustrator 24.0.3, SVG Export Plug-In . SVG Version: 6.00 Build 0)  -->
<svg version="1.1" id="Livello_1" xmlns="http://www.w3.org/2000/svg" xmlns:xlink="http://www.w3.org/1999/xlink" x="0px" y="0px"
	 viewBox="0 0 136.6 19.6" enable-background="new 0 0 136.6 19.6" xml:space="preserve">
<g>
	<g>
		<g>
			<path fill="#768190" d="M64.5,13.8c-0.4,0-0.8-0.1-1.1-0.3c-0.4-0.2-0.7-0.4-0.9-0.7c-0.3-0.3-0.5-0.6-0.6-1
				c-0.1-0.4-0.2-0.8-0.2-1.3c0-0.5,0.1-0.9,0.2-1.3c0.2-0.4,0.4-0.8,0.6-1.1c0.3-0.3,0.6-0.5,1-0.7c0.4-0.2,0.8-0.3,1.2-0.3
				c0.4,0,0.8,0.1,1.1,0.3c0.3,0.2,0.6,0.4,0.8,0.7l0-0.8h1.5v6.3h-1.5l0-0.9c-0.2,0.3-0.5,0.6-0.9,0.8
				C65.3,13.7,64.9,13.8,64.5,13.8z M64.9,12.3c0.3,0,0.6-0.1,0.8-0.2c0.2-0.2,0.4-0.4,0.6-0.7c0.1-0.3,0.2-0.6,0.2-0.9
				c0-0.4-0.1-0.7-0.2-0.9c-0.1-0.3-0.3-0.5-0.6-0.7c-0.2-0.2-0.5-0.2-0.8-0.2c-0.3,0-0.6,0.1-0.8,0.2c-0.2,0.2-0.4,0.4-0.6,0.7
				c-0.1,0.3-0.2,0.6-0.2,0.9c0,0.4,0.1,0.7,0.2,0.9c0.1,0.3,0.3,0.5,0.6,0.7C64.3,12.2,64.6,12.3,64.9,12.3z"/>
			<path fill="#768190" d="M70.7,5.6c0,0.2,0,0.3-0.1,0.5c-0.1,0.1-0.2,0.3-0.3,0.3c-0.1,0.1-0.3,0.1-0.5,0.1c-0.2,0-0.3,0-0.5-0.1
				c-0.1-0.1-0.3-0.2-0.3-0.3c-0.1-0.1-0.1-0.3-0.1-0.5c0-0.2,0-0.3,0.1-0.5C69,5,69.1,4.9,69.3,4.8c0.1-0.1,0.3-0.1,0.5-0.1
				c0.2,0,0.3,0,0.5,0.1c0.1,0.1,0.3,0.2,0.3,0.3C70.7,5.3,70.7,5.4,70.7,5.6z M68.9,13.6V7.3h1.7v6.3H68.9z"/>
			<path fill="#768190" d="M75.1,7.3c0,0-0.1,0-0.1,0c-0.1,0-0.2,0-0.3,0c-0.4,0-0.7,0.1-1,0.3c-0.3,0.2-0.5,0.4-0.6,0.8l-0.1-1
				h-1.5v6.3h1.7v-3.1c0-0.5,0.1-0.9,0.4-1.2c0.2-0.3,0.6-0.4,1.1-0.4c0.1,0,0.2,0,0.3,0c0.1,0,0.2,0,0.3,0.1V7.3z"/>
			<path fill="#768190" d="M75.7,13.6V4.7h1.7v3.4c0.2-0.3,0.5-0.5,0.8-0.7c0.3-0.2,0.7-0.3,1.1-0.3c0.4,0,0.8,0.1,1.1,0.3
				c0.4,0.2,0.7,0.4,0.9,0.7c0.3,0.3,0.5,0.6,0.6,1c0.1,0.4,0.2,0.8,0.2,1.3c0,0.5-0.1,0.9-0.2,1.3c-0.2,0.4-0.4,0.8-0.6,1.1
				c-0.3,0.3-0.6,0.5-1,0.7c-0.4,0.2-0.8,0.3-1.2,0.3c-0.4,0-0.8-0.1-1.1-0.3c-0.3-0.2-0.6-0.4-0.8-0.7l0,0.8H75.7z M79,12.3
				c0.3,0,0.6-0.1,0.8-0.2c0.2-0.2,0.4-0.4,0.6-0.7c0.1-0.3,0.2-0.6,0.2-0.9c0-0.4-0.1-0.7-0.2-0.9C80.2,9.3,80,9,79.8,8.9
				c-0.2-0.2-0.5-0.2-0.8-0.2c-0.3,0-0.6,0.1-0.8,0.2c-0.2,0.2-0.4,0.4-0.6,0.7c-0.1,0.3-0.2,0.6-0.2,0.9c0,0.4,0.1,0.7,0.2,0.9
				c0.1,0.3,0.3,0.5,0.6,0.7C78.4,12.2,78.7,12.3,79,12.3z"/>
			<path fill="#768190" d="M83,13.6V7.3h1.5l0,0.8c0.2-0.3,0.4-0.5,0.8-0.7c0.3-0.2,0.7-0.3,1.1-0.3c0.5,0,0.9,0.1,1.2,0.3
				C88,7.7,88.2,8,88.4,8.4c0.2,0.4,0.3,0.9,0.3,1.4v3.8H87v-3.6c0-0.4-0.1-0.8-0.3-1c-0.2-0.3-0.5-0.4-0.8-0.4
				c-0.3,0-0.5,0.1-0.7,0.2c-0.2,0.1-0.3,0.3-0.5,0.5c-0.1,0.2-0.2,0.4-0.2,0.7v3.6H83z"/>
			<path fill="#768190" d="M89.5,13.6V4.7h1.7v3.4c0.2-0.3,0.5-0.5,0.8-0.7c0.3-0.2,0.7-0.3,1.1-0.3c0.4,0,0.8,0.1,1.1,0.3
				c0.4,0.2,0.7,0.4,0.9,0.7c0.3,0.3,0.5,0.6,0.6,1c0.1,0.4,0.2,0.8,0.2,1.3c0,0.5-0.1,0.9-0.2,1.3c-0.2,0.4-0.4,0.8-0.6,1.1
				c-0.3,0.3-0.6,0.5-1,0.7c-0.4,0.2-0.8,0.3-1.2,0.3c-0.4,0-0.8-0.1-1.1-0.3c-0.3-0.2-0.6-0.4-0.8-0.7l0,0.8H89.5z M92.8,12.3
				c0.3,0,0.6-0.1,0.8-0.2c0.2-0.2,0.4-0.4,0.6-0.7c0.1-0.3,0.2-0.6,0.2-0.9c0-0.4-0.1-0.7-0.2-0.9C94,9.3,93.8,9,93.6,8.9
				c-0.2-0.2-0.5-0.2-0.8-0.2c-0.3,0-0.6,0.1-0.8,0.2c-0.2,0.2-0.4,0.4-0.6,0.7c-0.1,0.3-0.2,0.6-0.2,0.9c0,0.4,0.1,0.7,0.2,0.9
				c0.1,0.3,0.3,0.5,0.6,0.7C92.2,12.2,92.5,12.3,92.8,12.3z"/>
		</g>
		<path fill="#768190" d="M58,13.1c-0.1-0.2-0.2-0.4-0.2-0.6c-0.1-0.3-0.3-0.6-0.4-0.9l0,0C56.2,9,54.9,6.5,53.6,4l-0.1-0.1
			c-0.1-0.3-0.3-0.5-0.4-0.8c-0.2-0.3-0.3-0.6-0.6-0.9c-0.6-0.6-1.3-1-2.2-1c-0.8,0-1.6,0.4-2.2,1c-0.3,0.3-0.4,0.6-0.6,0.9
			c-0.1,0.3-0.3,0.5-0.4,0.8L47.2,4c-1.3,2.5-2.5,5.1-3.7,7.6l0,0c-0.1,0.3-0.3,0.6-0.4,0.9c-0.1,0.2-0.2,0.4-0.2,0.6
			c-0.2,0.6-0.3,1.2-0.2,1.8c0.2,1.3,1,2.3,2.2,2.8c0.4,0.2,0.9,0.3,1.4,0.3c0.1,0,0.3,0,0.4,0c0.6-0.1,1.1-0.3,1.7-0.6
			c0.7-0.4,1.4-0.9,2.1-1.7c0.7,0.8,1.4,1.4,2.1,1.7c0.6,0.3,1.1,0.5,1.7,0.6c0.1,0,0.3,0,0.4,0c0.5,0,0.9-0.1,1.4-0.3
			c1.2-0.5,2-1.5,2.2-2.8C58.3,14.3,58.2,13.7,58,13.1z M50.4,13.9c-0.9-1.2-1.5-2.2-1.7-3.1c-0.1-0.4-0.1-0.7-0.1-1
			c0-0.3,0.1-0.5,0.3-0.7c0.3-0.5,0.9-0.7,1.5-0.7c0.6,0,1.2,0.3,1.5,0.7c0.1,0.2,0.2,0.4,0.3,0.7c0,0.3,0,0.7-0.1,1
			C51.9,11.7,51.3,12.8,50.4,13.9z M57.1,14.7c-0.1,0.9-0.7,1.6-1.5,2c-0.4,0.2-0.8,0.2-1.3,0.2c-0.4,0-0.8-0.2-1.3-0.4
			c-0.6-0.3-1.2-0.9-1.9-1.6c1.1-1.4,1.8-2.6,2-3.7c0.1-0.5,0.1-1,0.1-1.4c-0.1-0.4-0.2-0.8-0.4-1.1c-0.5-0.7-1.4-1.2-2.4-1.2
			c-1,0-1.9,0.4-2.4,1.2c-0.2,0.3-0.4,0.7-0.4,1.1c-0.1,0.4,0,0.9,0.1,1.4c0.3,1.1,0.9,2.4,2,3.7c-0.7,0.8-1.3,1.3-1.9,1.6
			c-0.4,0.2-0.9,0.4-1.3,0.4c-0.4,0.1-0.9,0-1.3-0.2c-0.8-0.3-1.4-1.1-1.5-2c-0.1-0.4,0-0.8,0.1-1.3c0.1-0.2,0.1-0.3,0.2-0.5
			c0.1-0.3,0.3-0.6,0.4-0.8l0,0c1.2-2.5,2.4-5,3.7-7.5l0.1-0.1c0.1-0.3,0.3-0.5,0.4-0.8c0.1-0.3,0.3-0.5,0.5-0.7
			c0.4-0.4,0.8-0.6,1.3-0.6c0.5,0,1,0.2,1.3,0.6c0.2,0.2,0.3,0.5,0.5,0.7c0.1,0.3,0.3,0.5,0.4,0.8l0.1,0.1c1.3,2.5,2.5,5,3.7,7.5
			l0,0c0.1,0.3,0.3,0.6,0.4,0.8c0.1,0.2,0.2,0.4,0.2,0.5C57.1,13.9,57.2,14.3,57.1,14.7z"/>
	</g>
</g>
</svg>
