<svg fill="none" height="49" viewBox="0 0 144 49" width="144" xmlns="http://www.w3.org/2000/svg"><g clip-rule="evenodd" fill="#768190" fill-rule="evenodd"><path d="m81.3946 20.7954c-.8434 0-1.6869.23-2.3003.7668-.8435.6901-1.3035 1.8403-1.3035 2.8371 0 1.1501.5367 1.8402.7667 2.2236.3068.46 1.2269 1.4569 2.8371 1.4569.4601 0 1.5336-.1534 2.4537-.8435.7668-.7667 1.3035-1.7636 1.3035-2.837 0-.7668-.23-1.3036-.3067-1.4569-.3834-.6901-1.3035-2.147-3.4505-2.147z"/><path d="m48.6535 6.61084h-1.2269v6.97766h1.7636c.8435-.0767 1.6869-.0767 2.377-.6901.5367-.3834 1.3802-1.3035 1.3802-2.8371 0-.30669-.0767-1.2268-.6134-1.99357-.8435-1.45687-2.147-1.45689-3.6805-1.45689z"/><path d="m30.7105 23.2495c.23-.3833.23-.7667.23-.9201 0-.23 0-.7668-.4601-1.0735-.3834-.23-.9201-.23-1.3035-.23h-.6901v2.7604h.8434c.8435-.0767 1.1502-.23 1.3803-.5368z"/><path d="m30.6338 25.1668c-.2301-.0767-.7668-.0767-1.4569-.0767h-.6901v2.8371h1.6102c.2301 0 .4601 0 .6901-.0767.9968-.23 1.0735-.9201 1.0735-1.3035 0-1.0735-.7668-1.3802-1.2268-1.3802z"/><path d="m9.93161 20.7954c-.84346 0-1.68691.23-2.30033.7668-.76677.6901-1.30352 1.8402-1.30352 2.8371 0 1.1501.53674 1.8402.76677 2.2236.30671.46 1.30353 1.3802 2.83708 1.3802.38339 0 1.45689-.0767 2.37699-.8435.7668-.6901 1.3035-1.6869 1.3035-2.7603 0-.7668-.23-1.3036-.23-1.4569-.3834-.6901-1.3802-2.147-3.45049-2.147z"/><path d="m73.4968 13.7411c.3834 0 1.4568-.0766 2.377-.8434.7667-.6901 1.3035-1.7636 1.3035-2.8371 0-.69006-.2301-1.22683-.3067-1.45686-.2301-.69009-1.3035-2.22361-3.3738-2.22361-.8435 0-1.6102.23003-2.3003.76677-.8435.76677-1.3802 1.84027-1.3802 2.83707 0 1.15013.6134 1.91693.7668 2.22363.3833.5367 1.3035 1.5335 2.9137 1.5335z"/><path d="m.5.399902v47.999998h143.463v-47.999998zm80.0512 4.830668h1.3035v8.35783h4.294v1.3035h-5.5975zm-11.0416 1.76357c.5368-.76678 1.8403-1.91694 3.9873-1.91694 1.6869 0 2.6837.69012 3.2204 1.0735 1.3036.99681 1.9169 2.45367 1.8403 4.0639 0 .6134-.1534 1.9169-1.2268 3.1437-.4601.6135-1.7636 1.7636-3.8339 1.7636-.6134 0-2.147-.1533-3.3738-1.3035-1.0735-.9201-1.7636-2.3003-1.7636-3.7572.0767-.53671.23-1.9169 1.1501-3.06706zm-30.7476-1.76357h5.1374v1.30352h-3.7572v2.91373h3.6805v1.30348h-3.6805v2.8371h3.9105v1.3035h-5.3674v-9.66133zm-11.5783 0h1.3035v9.58463h-1.3035zm-21.92969 0h1.38018v5.44403c0 .6901 0 1.3036.38339 1.917.15335.23.30672.3834.53675.5367.61342.4601 1.38017.4601 1.61021.4601.23003 0 1.15016 0 1.84026-.6134.3834-.2301.5367-.6135.6134-.7668.2301-.5368.23-1.1502.23-1.6869v-5.4441h1.3036v5.5208c0 .1533 0 .7667-.0767 1.2268-.1533 1.2268-.6901 1.9936-1.8403 2.607-.3067.1534-1.0734.4601-2.14692.4601-1.07349 0-2.30035-.3834-3.1438-1.3035-.07668-.1534-.3067-.3834-.46005-.8435-.23003-.6901-.23005-1.3035-.30673-1.9936v-5.52073zm8.51119 22.46643c-.4601.6134-1.7636 1.7636-3.83389 1.7636-.61342 0-2.14694-.1534-3.37378-1.3035-1.07348-.9202-1.76361-2.3003-1.76361-3.6805 0-.6135.15337-1.8403 1.0735-3.1438.53674-.6901 1.76359-1.8403 3.98723-1.8403 1.68695 0 2.68375.6135 3.22045 1.0735 1.3035.9968 1.9169 2.4537 1.8402 4.0639.0767.5368-.0766 1.8403-1.1501 3.0671zm8.0511-6.7476h-3.6038v2.5304h3.6038v1.3035h-3.6038v4.4473h-1.3035v-9.508h4.9073zm2.377-6.0575h-1.1501l-4.6774-5.6741c-.23-.30671-.5367-.69014-.7668-.99685l-.5367-.76677c0 .84345.0767 1.76358.0767 2.68372v4.8307h-1.3035v-9.58467h1.0735l4.7539 5.67407c.2301.3067.4601.6135.7668.8435.23.3067.3834.6134.6135.9201-.0767-.8435-.0767-1.7636-.0767-2.5303v-4.90737h1.3035v9.50797zm8.5879 13.2652c-.7668.9968-1.917 1.0735-3.1438 1.0735h-2.4537v-9.508h2.0703c1.0735 0 2.0703.0767 2.7604 1.0735.23.23.3834.7667.3834 1.5335 0 .23 0 .9968-.6901 1.6102-.23.1534-.3834.2301-.6134.3067.4601.0767.6901.1534.8434.2301.8435.3833 1.3036 1.3035 1.3036 2.1469 0 .6901-.2301 1.2269-.4601 1.5336zm1.5335-13.2652h-1.3802v-8.35781h-3.1437v-1.30352h7.6677v1.30352h-3.1438zm6.0575 14.3387h-5.3674v-9.508h5.1374v1.3035h-3.7572v2.8371h3.6805v1.3035h-3.6805v2.9137h3.9106v1.1502zm10.5049 0h-1.1502l-4.6774-5.5975c-.23-.3067-.5367-.6901-.7667-.9968l-.5367-.7667c.0766.8434.0766 1.7635.0766 2.607v4.8306h-1.3035v-9.5079h1.0735l4.754 5.6741c.23.23.4601.5367.7668.8434.23.2301.3834.6134.6134.8435 0-.8435-.0767-1.6869-.0767-2.5304v-4.9073h1.3035v9.508zm.6134-14.7988c-.7668.3068-1.687.3834-3.3739.3834h-1.9936v-9.58463h2.7604c1.1502.07667 1.6869.15334 2.3003.23002.6135.15335 1.687.53676 2.5304 1.84027.2301.46007.7668 1.3802.7668 2.68371 0 .76673-.1534 1.22683-.2301 1.45683-.46 1.3802-1.4568 2.5304-2.7603 2.9904zm7.361 14.7988h-5.3674v-9.508h5.1374v1.3035h-3.7572v2.8371h3.6805v1.3035h-3.6805v2.9137h3.9105v1.1502zm8.5879-8.2812h-3.1438v8.2812h-1.3035v-8.2812h-3.1438v-1.3035h7.5911zm.0767-6.7476c-.4601.2301-1.687.8435-3.2972.8435-1.9169 0-3.2205-.9968-3.6805-1.5336-.8435-.8434-1.3035-2.2236-1.3035-3.4505 0-.46003.1533-.9201.1533-1.15013.2301-.61342.6134-2.07029 2.147-3.06709.46-.23004 1.4569-.76678 2.8371-.76678 1.5335 0 2.4536.53672 2.9904.84343v1.38023c-.3834-.23003-1.5336-.92013-2.9904-.92013-.2301 0-.7668-.00001-1.3036.23002-1.5335.61342-2.377 1.84024-2.377 3.52715 0 .5367.1534 1.0735.3068 1.5335.5367 1.3035 1.8402 2.0703 3.2204 2.0703.23 0 .6134 0 1.1502-.1533.8434-.2301 1.3802-.4601 2.147-.9201zm8.4345 6.7476h-3.0671v8.2812h-1.3803v-8.2812h-3.1437v-1.3035h7.5911zm9.2779 6.7476c-.5367.6134-1.7636 1.7636-3.8339 1.7636-.6134 0-2.0703-.0767-3.3738-1.2268-1.0735-.9202-1.6868-2.3004-1.6868-3.7572 0-.6135.1533-1.8403 1.0734-3.1438.5368-.6901 1.7636-1.8403 3.9872-1.8403 1.6869 0 2.6071.6135 3.1438 1.0735 1.3035.9968 1.9936 2.4537 1.9169 4.0639 0 .5368-.1533 1.8403-1.2268 3.0671zm11.5016 1.5336h-1.1501l-4.6007-5.5975c-.23-.3067-.5367-.6901-.7668-.9968l-.6134-.7667c.0767.8434.0767 1.7635.0767 2.607v4.8306h-1.3035v-9.5079h1.1501l4.754 5.6741c.2301.23.3834.5367.6902.8434.23.2301.3833.6134.6134.8435 0-.8435-.0767-1.6869-.0767-2.5304v-4.9073h1.3035v9.508zm-1.1501-15.9489c-.5368.6134-1.7636 1.7636-3.8339 1.7636-.6134 0-2.0703-.1534-3.3738-1.3036-1.0735-.9201-1.6869-2.3003-1.6869-3.75713 0-.53674.1533-1.84026 1.0735-3.06709.5367-.76678 1.7635-1.91694 3.9872-1.91694 1.6869 0 2.607.69007 3.1437 1.07346 1.3036.9968 1.9937 2.45366 1.917 4.0639 0 .6134-.1534 1.9936-1.2268 3.1438zm4.984 15.4888c-.153.3067-.537.6134-.9201.6134 0 0-.2301 0-.3067-.0767-.2301-.0767-.6901-.3066-.6901-.9201 0-.23.0766-.23.1533-.3067.0767-.23.23-.6134.8435-.6134.5371 0 .9971.3834.9971.8434 0 .0767 0 .3068-.077.4601zm3.527-13.8786c-.23-.6134-.767-1.6869-1.84-2.9137-.383-.6135-.844-1.1502-1.687-1.3036-.23-.0766-.46-.0766-.537-.0766v4.2939h-1.3799v-9.58468h2.0699c1.074.07668 2.224.23006 2.837 1.22687.154.23003.384.69009.384 1.38018 0 .99681-.46 1.6102-.767 1.84023-.23.23003-.383.3067-.843.5368.153.0766.23.1533.306.23.537.3067.92.9968 1.304 1.5335l1.073 1.7636c.307.4601.384.6134.767 1.0735zm7.898-1.4568c-.383.9968-1.457 1.6102-2.53 1.6102-.384 0-.767-.0767-.844-.1534-.843-.23-1.533-.6901-1.84-.7668l.077-1.6102c.383.3067.766.6134 1.226.8434.154.0767.767.3834 1.304.3834.843 0 1.38-.6134 1.38-1.3802-.077-.7667-.537-1.1501-1.227-1.5335l-.767-.5367c-.92-.76682-1.916-1.38022-1.916-2.76041 0-.23004 0-.6901.23-1.15016.383-.92013 1.38-1.38019 2.377-1.38019.766 0 1.38.23003 2.07.61341v1.45684c-.614-.38338-1.227-.76677-1.994-.76677-1.073 0-1.303.76677-1.303 1.15016 0 .76677.613 1.22684 1.15 1.53355l.767.46009c.23.23003.46.30669.69.46005 1.227.92013 1.38 1.68693 1.38 2.37703-.077.23-.077.6901-.23 1.1502z"/><path d="m91.7458 6.38013c-.8435 0-1.6869.23003-2.3004.76677-.8434.76677-1.3802 1.84027-1.3035 2.83707 0 1.15013.5368 1.91693.7668 2.22363.3834.4601 1.3035 1.4569 2.8371 1.4569.46 0 1.5335-.0767 2.4536-.8435.7668-.6901 1.3036-1.7635 1.3036-2.83703 0-.69009-.2301-1.22685-.3068-1.45689-.3834-.61341-1.3035-2.14695-3.4504-2.14695z"/><path d="m102.634 7.91475c0-.15336 0-.46007-.23-.76678-.46-.61342-1.227-.53675-1.84-.53675h-.46v2.76037h.92c.537 0 1.073-.07665 1.38-.69007.077-.07668.23-.38339.23-.76677z"/></g></svg>