<svg height="36" viewBox="0 0 90 36" width="90" xmlns="http://www.w3.org/2000/svg"><path d="m76.9103001 36h12.5442454v-2.4633775h-12.5442454zm-8.2850605-2.4633775.8736124 2.4568572.1490585.0026081.8878703-2.4594653zm-18.929134 2.4633775h12.4068523v-2.4633775h-12.4068523zm-29.8168857-2.4633775v2.4594653h18.9226532c3.3557606 0 5.8897552-2.4594653 5.8897552-2.4594653zm-19.743123 2.4633775h17.4126257v-2.4633775h-17.4126257zm76.7742032-4.7898283h12.5442454v-2.4672897h-12.5442454zm-10.0089545-2.4659857.9086088 2.4659857h3.5333346l.8515777-2.4659857zm-17.20524 2.4659857h12.4068523v-2.4672897h-12.4068523zm-29.8168857-2.4659857v2.4659857h26.8046077c.5651262-.5646599.8891664-2.4659857.8891664-2.4659857zm-19.743123 2.4659857h17.4126257v-2.4672897h-17.4126257zm76.7742032-4.7937405h7.5384719v-2.4633775h-7.5384719zm-11.7237754-2.4620735.8839817 2.4620735h6.9422379l.8904625-2.4620735zm-10.6220387 2.4620735h7.5384719v-2.4633775h-7.5384719zm-14.8060461-2.4620735v2.4620735h8.0193475c0-1.1619213-.4782833-2.4620735-.4782833-2.4620735zm-14.8760388 2.4620735h7.539768v-2.4633775h-7.539768zm-19.87921997 0h7.54106417v-2.4633775h-7.54106417zm71.90711897-4.7885242h7.5384719v-2.4633775h-7.5384719zm-13.4373002-2.4633775.9137935 2.4633775h10.3576218l.8645394-2.4633775zm-8.9085139 2.4633775h7.5384719v-2.4633775h-7.5384719zm-29.6820849-2.4633775v2.4633775h21.386655c-.5145758-1.195827-2.1244077-2.4633775-2.1244077-2.4633775zm-19.87921997 2.4633775h7.54106417v-2.4633775h-7.54106417zm49.56130487-7.2545099v2.4633775h7.539768v-1.3705716l.4782834 1.3705716h13.814483l.5132797-1.3705716v1.3705716h7.5397681v-2.4633775h-14.1540772l-.7517733 2.0865029-.7543657-2.0865029zm-29.6820849 0v2.4633775h19.2622473s1.6098319-1.2636383 2.1244077-2.4633775zm-19.87921997 2.4633775h7.54106417v-2.4633775h-7.54106417zm66.90523407-7.257118-.8930549 2.4672897h13.4347079v-2.4672897zm-17.3439292 0v2.4672897h13.3698998l-.8917587-2.4672897zm-14.8060461 0v2.4672897h7.5410642s.4782833-1.3027603.4782833-2.4672897zm-14.8760388 2.4672897h7.539768v-2.4672897h-7.539768zm-19.87921997 0h7.54106417v-2.4672897h-7.54106417zm68.54876607-7.25320581-.8256545 2.45946533h16.5921559v-2.45946533zm-23.9919385 0v2.45946533h16.6569639l-.8243583-2.45946533zm-29.6807888 0v2.45946533h27.6937741s-.3240402-1.89480547-.8891664-2.45946533zm-19.8792199 2.45946533h17.4126257v-2.46337752h-17.4126257zm75.3341685-7.25190176-.8917587 2.46207347h14.8760388v-2.46207347zm-25.7741598 0v2.46207347h15.0121357l-.8917587-2.46207347zm-29.6807888 0v2.46207347h24.8124084s-2.5339946-2.46207347-5.8897552-2.46207347zm-19.8792199 2.46207347h17.4126257v-2.46337753h-17.4126257z" fill="#768190" fill-rule="evenodd"/></svg>