<svg height="271" viewBox="0 0 271 271" width="271" xmlns="http://www.w3.org/2000/svg"><g fill="#1d1d1b" fill-rule="evenodd" transform="translate(19.0625 5.857188)"><path d="m31.508 86.718h35.34v-20.619h-35.34zm48.181 38.611c.011.054.022.109.032.164 1.224.086 2.447.183 3.672.254 5.926.345 11.849.84 17.78.989 9.423.235 18.854.217 28.253-.666 5.546-.522 11.079-1.183 16.622-1.751 1.535-.157 3.017-.646 4.637-.03 4.373 1.665 8.942 2.601 13.593 3.027 6.71.615 13.361.195 19.934-1.383 32.075-7.697 51.212-39.66 43.058-71.558-5.947-23.262-26.013-40.526-49.909-43.265-6.269-.718-12.515-.552-18.719.682-13.631 2.711-25.025 9.308-33.847 20.029-10.898 13.243-15.103 28.524-12.994 45.527.888 7.167 3.232 13.875 6.785 20.152.346.612.259.913-.181 1.372-4.406 4.616-9.159 8.842-14.222 12.718-6.91 5.289-14.235 9.868-22.413 12.97-.691.263-1.387.513-2.081.769zm18.054 24.571h1.27c20.891 0 41.783-.002 62.674.008.784 0 1.579.045 2.348.183 2.932.532 4.54 2.47 4.542 5.458.007 12.916.004 25.833.004 38.75 0 17.89-.006 35.78.021 53.669.001.808-.228 1.177-.991 1.41-1.47.449-2.909.997-4.483 1.547v-91.739h-1.069-63.13c-1.258 0-1.26.001-1.26 1.247v94.329 1.307c-2.018-.373-3.915-.711-5.806-1.077-.95-.185-1.884-.468-2.839-.613-.608-.091-.746-.384-.691-.915.025-.24.004-.484.004-.727v-119.253-1.268c-2.388-.42-4.711-.789-7.016-1.245-2.847-.563-5.685-1.171-8.515-1.814-1.454-.331-2.704-1.049-3.589-2.308-.529-.753-.48-1.338.307-1.836.687-.435 1.425-.814 2.182-1.109 5.562-2.164 10.69-5.129 15.691-8.346.736-.474.967-.977.96-1.827-.04-5.458-.02-10.916-.02-16.374-.001-.329 0-.658 0-1.056h-82.399v101.932c-.059.022-.119.046-.179.069-.72-1.063-1.364-2.187-2.173-3.177-2.214-2.711-2.823-5.731-2.81-9.238.118-31.109.068-62.22.069-93.329 0-3.736 1.963-5.737 5.717-5.757 4.852-.025 9.703-.007 14.554-.008h.997v-2.218c0-7.399-.004-14.797.002-22.196.002-3.489 1.758-5.516 5.262-5.642 4.452-.16 8.912-.085 13.369-.089 9.703-.007 19.405-.002 29.108.002.485 0 .971.011 1.454.05 2.643.214 4.488 1.946 4.855 4.587.095.687.127 1.389.128 2.084.008 7.398.005 14.796.004 22.195v1.227h1.1c4.942 0 9.885-.002 14.827 0 3.774.002 5.586 2.062 5.491 5.836-.122 4.879-.036 9.763-.036 14.645 0 .078.047.157.123.399 1.327-1.179 2.715-2.183 3.812-3.44 1.888-2.163 3.61-4.474 5.358-6.756.182-.239.207-.759.08-1.051-2.49-5.751-4.163-11.732-5-17.936-.793-5.882-.814-11.774-.092-17.675 1.46-11.942 5.681-22.803 12.893-32.423 10.439-13.926 24.261-22.629 41.289-26.225 6.535-1.38 13.145-1.788 19.792-1.222 13.88 1.183 26.367 6.019 37.261 14.716 12.396 9.896 20.509 22.584 24.184 38.048 1.544 6.495 2.093 13.08 1.633 19.748-1.253 18.183-8.585 33.488-21.951 45.827-9.71 8.962-21.186 14.529-34.171 16.989-6.227 1.18-12.51 1.635-18.811 1.012-3.751-.372-7.454-1.21-11.184-1.797-1.7-.268-3.409-.537-5.124-.628-7.805-.415-15.61-.839-23.421-1.112-4.33-.151-8.672.06-13.006-.026-4.149-.081-8.294-.337-12.44-.512-.362-.015-.724-.002-1.159-.002z"/><path d="m41.2997 119.2768c-.291 2.341-.615 4.678-.863 7.023-.429 4.061-.829 8.124-1.204 12.191-.164 1.776-.224 3.562-.36 5.342-.031.416-.135.841-.29 1.228-.332.824-.95 1.352-1.862 1.362-.956.009-1.618-.53-1.917-1.403-.202-.591-.278-1.235-.335-1.862-.469-5.21-.894-10.425-1.389-15.632-.24-2.529-.644-5.043-.884-7.573-.084-.887-.031-1.835.195-2.694.568-2.153 2.626-3.457 4.863-3.221 2.078.218 3.768 2.021 3.952 4.23.028.331.004.666.004.999.03.004.06.007.09.01"/><path d="m65.4955 119.2973c-.291 2.341-.618 4.678-.866 7.023-.428 4.061-.826 8.124-1.2 12.191-.164 1.776-.221 3.563-.362 5.343-.036.443-.159.898-.336 1.307-.34.783-.961 1.259-1.834 1.263-.876.004-1.529-.468-1.831-1.258-.232-.609-.336-1.284-.396-1.939-.475-5.24-.9-10.485-1.396-15.722-.24-2.529-.645-5.043-.883-7.573-.083-.887-.027-1.836.204-2.693.578-2.152 2.639-3.444 4.876-3.2 2.075.228 3.758 2.04 3.933 4.25.026.331.004.666.004.999z"/><path d="m41.3032 166.5697c-.297 2.371-.631 4.737-.882 7.113-.427 4.031-.818 8.065-1.188 12.101-.163 1.776-.221 3.563-.361 5.343-.035.443-.152.899-.325 1.31-.33.787-.945 1.275-1.817 1.289-.915.016-1.571-.481-1.886-1.311-.211-.555-.314-1.167-.368-1.763-.478-5.3-.908-10.604-1.408-15.902-.236-2.5-.636-4.984-.871-7.484-.083-.886-.034-1.835.19-2.694.562-2.153 2.619-3.463 4.856-3.231 2.114.217 3.817 2.064 3.968 4.311.021.302.003.606.003.909.03.003.06.006.089.009"/><path d="m65.4916 166.641c-.292 2.341-.622 4.678-.87 7.023-.426 4.031-.82 8.065-1.191 12.1-.165 1.808-.222 3.624-.367 5.434-.035.442-.166.898-.35 1.303-.352.779-.983 1.239-1.857 1.227-.837-.012-1.472-.464-1.77-1.214-.24-.605-.354-1.28-.414-1.935-.479-5.269-.906-10.543-1.404-15.811-.237-2.5-.641-4.983-.871-7.483-.084-.916-.031-1.898.212-2.781.592-2.151 2.666-3.421 4.903-3.156 2.069.244 3.738 2.076 3.895 4.285.023.332.003.666.003.999z"/><path d="m121.5346 183.1703c-.299 2.37-.636 4.736-.888 7.111-.424 4-.813 8.005-1.178 12.011-.165 1.808-.223 3.624-.367 5.434-.035.443-.16.898-.339 1.306-.344.782-.969 1.253-1.842 1.251-.875-.003-1.519-.478-1.824-1.269-.224-.581-.331-1.225-.388-1.85-.476-5.27-.902-10.545-1.4-15.812-.239-2.53-.645-5.044-.882-7.574-.083-.886-.024-1.836.209-2.692.585-2.152 2.648-3.437 4.885-3.186 2.074.233 3.752 2.051 3.921 4.261.026.331.004.666.004.999.029.003.059.006.089.01"/><path d="m145.7265 183.185c-.292 2.341-.62 4.678-.869 7.023-.426 4.031-.821 8.065-1.192 12.101-.166 1.807-.229 3.623-.364 5.433-.029.386-.125.782-.27 1.141-.344.858-.973 1.41-1.93 1.398-.956-.012-1.591-.576-1.89-1.447-.184-.534-.257-1.118-.308-1.685-.472-5.271-.902-10.545-1.4-15.813-.236-2.5-.64-4.983-.871-7.483-.085-.916-.034-1.897.207-2.781.586-2.153 2.657-3.428 4.894-3.169 2.072.239 3.745 2.064 3.907 4.274.024.332.003.666.003.999.028.003.055.006.083.009"/><path d="m65.4926 213.932c-.292 2.341-.62 4.678-.868 7.023-.427 4.031-.822 8.065-1.193 12.101-.166 1.807-.229 3.623-.364 5.433-.029.386-.125.782-.269 1.141-.345.858-.974 1.41-1.93 1.398s-1.591-.576-1.891-1.447c-.184-.534-.257-1.118-.308-1.685-.472-5.271-.902-10.545-1.4-15.813-.236-2.5-.64-4.983-.871-7.483-.084-.916-.033-1.897.207-2.781.587-2.153 2.657-3.428 4.895-3.169 2.071.239 3.744 2.064 3.906 4.274.024.332.003.666.003.999.028.003.056.006.083.009"/><path d="m121.5331 230.4398c-.29 2.341-.615 4.678-.863 7.023-.429 4.061-.829 8.124-1.204 12.191-.163 1.776-.223 3.562-.36 5.342-.031.416-.135.841-.29 1.228-.332.823-.948 1.351-1.863 1.36-.957.009-1.617-.53-1.916-1.403-.202-.59-.278-1.235-.335-1.862-.469-5.21-.894-10.424-1.389-15.631-.24-2.529-.644-5.044-.884-7.573-.084-.887-.031-1.835.196-2.694.567-2.153 2.626-3.457 4.863-3.22 2.078.218 3.767 2.021 3.951 4.231.028.33.004.666.004.999.03.003.06.006.09.009"/><path d="m145.7275 230.4789c-.292 2.342-.62 4.681-.868 7.026-.427 4.034-.823 8.069-1.194 12.107-.166 1.807-.251 3.624-.349 5.437-.031.576-.235.875-.857.93-.841.073-1.68.218-2.511.377-.545.103-.808-.096-.868-.619-.069-.601-.146-1.199-.196-1.801-.316-3.799-.573-7.603-.952-11.395-.385-3.855-.918-7.695-1.316-11.548-.088-.855-.013-1.776.215-2.603.59-2.152 2.651-3.438 4.89-3.185 2.074.233 3.752 2.054 3.918 4.266.025.331.004.666.004.999.028.003.056.006.084.009"/><path d="m39.2753 232.1674c-1.872-1.412-3.575-2.664-5.229-3.979-.257-.204-.371-.68-.415-1.046-.505-4.235-1.011-8.47-1.447-12.712-.087-.854-.012-1.774.217-2.601.603-2.182 2.715-3.472 4.978-3.172 2.09.279 3.852 2.179 3.807 4.432-.04 2.048-.364 4.09-.571 6.135-.399 3.94-.804 7.881-1.208 11.82-.029.292-.068.583-.132 1.123"/><path d="m158.5761 58.3744h-11.923v-8.26h11.867v-13.479h10.9c.019.122.059.263.059.405.041 11.488.098 22.976.102 34.464.001 3.454-.17 6.909-.221 10.363-.032 2.124.08 4.24.844 6.26 1.045 2.76 3.355 4.245 6.279 3.818 2.078-.303 4.117-.872 6.38-1.368 1.24 2.186 2.606 4.593 4.015 7.075-.217.181-.407.362-.619.511-5.483 3.876-11.454 4.385-17.745 2.523-6.035-1.788-9.531-6.029-9.724-12.3-.222-7.268-.161-14.545-.211-21.819-.018-2.692-.003-5.384-.003-8.193"/><path d="m188.2045 60.3944c-3.671-.006-6.343-2.688-6.339-6.366.003-3.43 2.893-6.342 6.288-6.335 3.523.006 6.408 2.899 6.41 6.425.001 3.557-2.76 6.281-6.359 6.276"/></g></svg>