<svg width="97" height="96" viewBox="0 0 97 96" fill="none" xmlns="http://www.w3.org/2000/svg">
<path d="M48.5565 40.4842L47.4958 41.5449L48.5565 40.4842ZM49.7903 40.6444L49.06 39.3342L49.7903 40.6444ZM43.7374 37.0793L44.798 38.14L43.7374 37.0793ZM45.1516 37.0793L46.2123 36.0187L45.1516 37.0793ZM38.0805 42.7362L37.0199 41.6755L38.0805 42.7362ZM41.6452 48.7888L40.335 48.0584L41.6452 48.7888ZM41.485 47.5549L42.5457 46.4942L41.485 47.5549ZM39.7993 53.2409L41.242 53.6515L39.7993 53.2409ZM39.7993 64.7591L38.3565 65.1696L39.7993 64.7591ZM41.4846 70.4443L42.5453 71.505L41.4846 70.4443ZM41.6448 69.2105L40.3346 69.9409L41.6448 69.2105ZM38.0797 75.2635L39.1404 74.2028L38.0797 75.2635ZM38.0797 73.8492L37.019 72.7886L38.0797 73.8492ZM45.1508 80.9203L46.2114 81.981L45.1508 80.9203ZM43.7365 80.9203L42.6759 81.981L43.7365 80.9203ZM49.7896 77.3552L49.0592 78.6653L49.7896 77.3552ZM48.5557 77.5153L47.4951 76.4547L48.5557 77.5153ZM54.2407 79.2005L54.6512 77.7578L54.2407 79.2005ZM65.7588 79.2005L66.1693 80.6432L65.7588 79.2005ZM70.2101 77.3551L69.4797 76.0449L70.2101 77.3551ZM81.9204 73.8496L80.8598 74.9102L81.9204 73.8496ZM78.3548 69.2103L77.0447 68.4799L78.3548 69.2103ZM78.515 70.4441L77.4543 71.5048L78.515 70.4441ZM80.2002 64.7591L78.7575 64.3485L80.2002 64.7591ZM80.2002 53.2409L78.7575 53.6515L80.2002 53.2409ZM78.5151 47.556L79.5757 48.6167L78.5151 47.556ZM78.3549 48.7898L79.6651 48.0595L78.3549 48.7898ZM81.9203 42.7365L80.8596 43.7972L81.9203 42.7365ZM81.9203 44.1508L80.8596 43.0901L81.9203 44.1508ZM76.2635 37.0797L75.2028 38.1404L76.2635 37.0797ZM70.2102 40.645L69.4799 41.9552L70.2102 40.645ZM71.4441 40.4849L72.5047 41.5455L71.4441 40.4849ZM65.7588 38.7995L65.3483 40.2422L65.7588 38.7995ZM63.9997 30.5H55.9997V33.5H63.9997V30.5ZM66.4997 37.8137V33H63.4997V37.8137H66.4997ZM70.9406 39.3348C69.447 38.5022 67.8483 37.8345 66.1693 37.3568L65.3483 40.2422C66.8015 40.6558 68.1858 41.2338 69.4799 41.9552L70.9406 39.3348ZM73.7886 36.019L70.3834 39.4242L72.5047 41.5455L75.9099 38.1404L73.7886 36.019ZM82.981 41.6759L77.3241 36.019L75.2028 38.1404L80.8596 43.7972L82.981 41.6759ZM79.5757 48.6167L82.981 45.2114L80.8596 43.0901L77.4544 46.4953L79.5757 48.6167ZM81.643 52.8304C81.1652 51.1516 80.4976 49.553 79.6651 48.0595L77.0447 49.5202C77.766 50.8141 78.344 52.1983 78.7575 53.6515L81.643 52.8304ZM86 52.5H81.186V55.5H86V52.5ZM88.5 63V55H85.5V63H88.5ZM81.186 65.5H86V62.5H81.186V65.5ZM79.665 69.9407C80.4976 68.4471 81.1652 66.8485 81.643 65.1696L78.7575 64.3485C78.344 65.8017 77.766 67.186 77.0447 68.4799L79.665 69.9407ZM77.4543 71.5048L80.8598 74.9102L82.9811 72.7889L79.5757 69.3835L77.4543 71.5048ZM80.8598 74.2031L75.2029 79.86L77.3243 81.9813L82.9811 76.3245L80.8598 74.2031ZM75.91 79.86L72.5046 76.4546L70.3833 78.5759L73.7887 81.9813L75.91 79.86ZM66.1693 80.6432C67.8483 80.1655 69.4469 79.4978 70.9405 78.6652L69.4797 76.0449C68.1857 76.7662 66.8015 77.3443 65.3483 77.7578L66.1693 80.6432ZM66.4997 85V80.1863H63.4997V85H66.4997ZM55.9997 87.5H63.9997V84.5H55.9997V87.5ZM53.4997 80.1863V85H56.4997V80.1863H53.4997ZM49.0592 78.6653C50.5527 79.4979 52.1513 80.1655 53.8302 80.6432L54.6512 77.7578C53.1981 77.3443 51.8139 76.7663 50.5199 76.045L49.0592 78.6653ZM46.2114 81.981L49.6164 78.576L47.4951 76.4547L44.0901 79.8596L46.2114 81.981ZM37.019 76.3241L42.6759 81.981L44.7972 79.8596L39.1404 74.2028L37.019 76.3241ZM40.4239 69.3837L37.019 72.7886L39.1403 74.9099L42.5453 71.505L40.4239 69.3837ZM38.3565 65.1696C38.8343 66.8486 39.5019 68.4473 40.3346 69.9409L42.9549 68.4801C42.2335 67.1861 41.6555 65.8018 41.242 64.3485L38.3565 65.1696ZM34 65.5H38.8135V62.5H34V65.5ZM31.5 55V63H34.5V55H31.5ZM38.8135 52.5H34V55.5H38.8135V52.5ZM40.335 48.0584C39.5022 49.5522 38.8344 51.1511 38.3565 52.8304L41.242 53.6515C41.6556 52.198 42.2337 50.8134 42.9553 49.5192L40.335 48.0584ZM37.0199 45.2111L40.4244 48.6156L42.5457 46.4942L39.1412 43.0898L37.0199 45.2111ZM42.6767 36.0187L37.0199 41.6755L39.1412 43.7969L44.798 38.14L42.6767 36.0187ZM49.6172 39.4236L46.2123 36.0187L44.0909 38.14L47.4958 41.5449L49.6172 39.4236ZM53.8302 37.3568C52.1516 37.8344 50.5533 38.5019 49.06 39.3342L50.5206 41.9546C51.8143 41.2335 53.1983 40.6557 54.6512 40.2422L53.8302 37.3568ZM53.4997 33V37.8137H56.4997V33H53.4997ZM54.6512 40.2422C55.7068 39.9419 56.4997 38.9781 56.4997 37.8137H53.4997C53.4997 37.5711 53.6612 37.4049 53.8302 37.3568L54.6512 40.2422ZM47.4958 41.5449C48.3192 42.3682 49.5616 42.4892 50.5206 41.9546L49.06 39.3342C49.2138 39.2485 49.4457 39.2521 49.6172 39.4236L47.4958 41.5449ZM44.798 38.14C44.6028 38.3353 44.2862 38.3353 44.0909 38.14L46.2123 36.0187C45.2359 35.0424 43.653 35.0424 42.6767 36.0187L44.798 38.14ZM39.1412 43.0898C39.3364 43.285 39.3364 43.6016 39.1412 43.7969L37.0199 41.6755C36.0436 42.6518 36.0436 44.2348 37.0199 45.2111L39.1412 43.0898ZM42.9553 49.5192C43.49 48.5602 43.3691 47.3176 42.5457 46.4942L40.4244 48.6156C40.2529 48.4441 40.2493 48.2121 40.335 48.0584L42.9553 49.5192ZM38.8135 55.5C39.9779 55.5 40.9416 54.707 41.242 53.6515L38.3565 52.8304C38.4046 52.6614 38.5709 52.5 38.8135 52.5V55.5ZM34.5 55C34.5 55.2761 34.2761 55.5 34 55.5V52.5C32.6193 52.5 31.5 53.6193 31.5 55H34.5ZM34 62.5C34.2761 62.5 34.5 62.7239 34.5 63H31.5C31.5 64.3807 32.6193 65.5 34 65.5V62.5ZM41.242 64.3485C40.9416 63.293 39.9779 62.5 38.8135 62.5V65.5C38.5709 65.5 38.4046 65.3386 38.3565 65.1696L41.242 64.3485ZM42.5453 71.505C43.3686 70.6816 43.4895 69.4391 42.9549 68.4801L40.3346 69.9409C40.2489 69.7871 40.2524 69.5552 40.4239 69.3837L42.5453 71.505ZM39.1404 74.2028C39.3356 74.3981 39.3356 74.7146 39.1403 74.9099L37.019 72.7886C36.0427 73.7649 36.0427 75.3478 37.019 76.3241L39.1404 74.2028ZM44.0901 79.8596C44.2854 79.6644 44.6019 79.6644 44.7972 79.8596L42.6759 81.981C43.6522 82.9573 45.2351 82.9573 46.2114 81.981L44.0901 79.8596ZM50.5199 76.045C49.5609 75.5104 48.3184 75.6313 47.4951 76.4547L49.6164 78.576C49.4449 78.7475 49.213 78.7511 49.0592 78.6653L50.5199 76.045ZM56.4997 80.1863C56.4997 79.0219 55.7068 78.0581 54.6512 77.7578L53.8302 80.6432C53.6612 80.5951 53.4997 80.4289 53.4997 80.1863H56.4997ZM55.9997 84.5C56.2759 84.5 56.4997 84.7239 56.4997 85H53.4997C53.4997 86.3807 54.619 87.5 55.9997 87.5V84.5ZM63.4997 85C63.4997 84.7239 63.7236 84.5 63.9997 84.5V87.5C65.3805 87.5 66.4997 86.3807 66.4997 85H63.4997ZM65.3483 77.7578C64.2927 78.0581 63.4997 79.0219 63.4997 80.1863H66.4997C66.4997 80.4289 66.3383 80.5951 66.1693 80.6432L65.3483 77.7578ZM72.5046 76.4546C71.6812 75.6312 70.4387 75.5103 69.4797 76.0449L70.9405 78.6652C70.7867 78.751 70.5548 78.7474 70.3833 78.5759L72.5046 76.4546ZM75.2029 79.86C75.3982 79.6647 75.7148 79.6647 75.91 79.86L73.7887 81.9813C74.765 82.9576 76.3479 82.9576 77.3243 81.9813L75.2029 79.86ZM80.8598 74.9102C80.6645 74.715 80.6645 74.3984 80.8598 74.2031L82.9811 76.3245C83.9574 75.3481 83.9574 73.7652 82.9811 72.7889L80.8598 74.9102ZM77.0447 68.4799C76.5101 69.4389 76.631 70.6814 77.4543 71.5048L79.5757 69.3835C79.7472 69.555 79.7507 69.7869 79.665 69.9407L77.0447 68.4799ZM81.186 62.5C80.0216 62.5 79.0579 63.293 78.7575 64.3485L81.643 65.1696C81.5949 65.3386 81.4286 65.5 81.186 65.5V62.5ZM85.5 63C85.5 62.7239 85.7239 62.5 86 62.5V65.5C87.3807 65.5 88.5 64.3807 88.5 63H85.5ZM86 55.5C85.7239 55.5 85.5 55.2761 85.5 55H88.5C88.5 53.6193 87.3807 52.5 86 52.5V55.5ZM78.7575 53.6515C79.0579 54.707 80.0216 55.5 81.186 55.5V52.5C81.4286 52.5 81.5949 52.6614 81.643 52.8304L78.7575 53.6515ZM77.4544 46.4953C76.6311 47.3187 76.5101 48.5612 77.0447 49.5202L79.6651 48.0595C79.7508 48.2132 79.7472 48.4452 79.5757 48.6167L77.4544 46.4953ZM80.8596 43.7972C80.6644 43.6019 80.6644 43.2854 80.8596 43.0901L82.981 45.2114C83.9573 44.2351 83.9573 42.6522 82.981 41.6759L80.8596 43.7972ZM75.9099 38.1404C75.7146 38.3356 75.3981 38.3356 75.2028 38.1404L77.3241 36.019C76.3478 35.0427 74.7649 35.0427 73.7886 36.019L75.9099 38.1404ZM69.4799 41.9552C70.4389 42.4898 71.6814 42.3689 72.5047 41.5455L70.3834 39.4242C70.5549 39.2527 70.7868 39.2491 70.9406 39.3348L69.4799 41.9552ZM63.4997 37.8137C63.4997 38.9781 64.2927 39.9419 65.3483 40.2422L66.1693 37.3568C66.3383 37.4049 66.4997 37.5711 66.4997 37.8137H63.4997ZM55.9997 30.5C54.619 30.5 53.4997 31.6193 53.4997 33H56.4997C56.4997 33.2761 56.2759 33.5 55.9997 33.5V30.5ZM63.9997 33.5C63.7236 33.5 63.4997 33.2761 63.4997 33H66.4997C66.4997 31.6193 65.3805 30.5 63.9997 30.5V33.5Z" fill="black"/>
<path d="M57.4278 52.6134C59.1367 51.9027 61.0392 51.8064 62.8111 52.3411C64.5831 52.8758 66.1148 54.0084 67.1453 55.5458C68.1758 57.0832 68.6413 58.9304 68.4626 60.7726C68.2839 62.6148 67.4719 64.338 66.1651 65.6486C64.8582 66.9593 63.1374 67.7762 61.2957 67.9603C59.454 68.1444 57.6055 67.6842 56.0651 66.6582C54.5247 65.6322 53.3877 64.1038 52.8479 62.3334C52.308 60.563 52.3987 58.6603 53.1045 56.9493" stroke="black" stroke-width="3" stroke-linecap="round"/>
<path d="M20.5144 32.4853L19.4537 33.5459L20.5144 32.4853ZM20.5144 15.5147L21.5751 16.5754L20.5144 15.5147ZM24.3397 12.9383L23.7578 11.5558L24.3397 12.9383ZM24.9997 11.9756L23.4997 11.9756L24.9997 11.9756ZM17.938 19.34L16.5555 18.7581L17.938 19.34ZM17.938 28.66L16.5555 29.2419L17.938 28.66ZM31.9997 40L31.9997 41.5L31.9997 40ZM33.6597 35.0617L33.0779 33.6791L33.6597 35.0617ZM40.0613 28.66L41.4439 29.2419L40.0613 28.66ZM40.0613 19.34L41.4439 18.7581L40.0613 19.34ZM32.9997 11.9756L31.4997 11.9756L32.9997 11.9756ZM24.3397 35.0617L24.9215 33.6791L24.3397 35.0617ZM25.9997 40L25.9997 38.5L25.9997 40ZM32.9997 9L34.4997 9L32.9997 9ZM31.9997 6.5L25.9997 6.5L25.9997 9.5L31.9997 9.5L31.9997 6.5ZM34.4997 11.9756L34.4997 9L31.4997 9L31.4997 11.9756L34.4997 11.9756ZM38.5456 14.4541C37.2736 13.182 35.8078 12.2149 34.2416 11.5558L33.0779 14.3209C34.2923 14.832 35.4315 15.5825 36.4243 16.5754L38.5456 14.4541ZM41.4439 18.7581C40.7847 17.1919 39.8177 15.7261 38.5456 14.4541L36.4243 16.5754C37.4172 17.5682 38.1677 18.7074 38.6788 19.9218L41.4439 18.7581ZM44 18.5L41.024 18.5L41.024 21.5L44 21.5L44 18.5ZM46.5 27L46.5 21L43.5 21L43.5 27L46.5 27ZM41.024 29.5L44 29.5L44 26.5L41.024 26.5L41.024 29.5ZM38.5456 33.5459C39.8177 32.2739 40.7847 30.8081 41.4439 29.2419L38.6788 28.0782C38.1677 29.2926 37.4172 30.4318 36.4243 31.4246L38.5456 33.5459ZM34.2416 36.4442C35.8078 35.7851 37.2736 34.818 38.5456 33.5459L36.4243 31.4246C35.4315 32.4175 34.2923 33.168 33.0779 33.6791L34.2416 36.4442ZM34.4997 39L34.4997 36.0244L31.4997 36.0244L31.4997 39L34.4997 39ZM25.9997 41.5L31.9997 41.5L31.9997 38.5L25.9997 38.5L25.9997 41.5ZM23.4997 36.0244L23.4997 39L26.4997 39L26.4997 36.0244L23.4997 36.0244ZM19.4537 33.5459C20.7258 34.818 22.1916 35.7851 23.7578 36.4442L24.9215 33.6791C23.707 33.168 22.5679 32.4175 21.5751 31.4246L19.4537 33.5459ZM16.5555 29.2419C17.2146 30.8081 18.1817 32.2739 19.4537 33.5459L21.5751 31.4246C20.5822 30.4318 19.8317 29.2926 19.3206 28.0782L16.5555 29.2419ZM16.9753 26.5L14 26.5L14 29.5L16.9753 29.5L16.9753 26.5ZM14.5 27L14.5 21L11.5 21L11.5 27L14.5 27ZM14 21.5L16.9753 21.5L16.9753 18.5L14 18.5L14 21.5ZM19.4537 14.4541C18.1817 15.7261 17.2146 17.1919 16.5555 18.7581L19.3206 19.9218C19.8317 18.7074 20.5822 17.5682 21.5751 16.5754L19.4537 14.4541ZM23.7578 11.5558C22.1916 12.2149 20.7258 13.182 19.4537 14.4541L21.5751 16.5754C22.5679 15.5825 23.707 14.832 24.9215 14.3209L23.7578 11.5558ZM23.4997 9L23.4997 11.9756L26.4997 11.9756L26.4997 9L23.4997 9ZM24.9215 14.3209C25.8211 13.9423 26.4997 13.0534 26.4997 11.9756L23.4997 11.9756C23.4997 11.7461 23.6399 11.6054 23.7578 11.5558L24.9215 14.3209ZM16.9753 21.5C18.0531 21.5 18.942 20.8214 19.3206 19.9218L16.5555 18.7581C16.6051 18.6403 16.7458 18.5 16.9753 18.5L16.9753 21.5ZM14.5 21C14.5 21.2761 14.2761 21.5 14 21.5L14 18.5C12.6193 18.5 11.5 19.6193 11.5 21L14.5 21ZM14 26.5C14.2761 26.5 14.5 26.7239 14.5 27L11.5 27C11.5 28.3807 12.6193 29.5 14 29.5L14 26.5ZM19.3206 28.0782C18.942 27.1786 18.0531 26.5 16.9753 26.5L16.9753 29.5C16.7458 29.5 16.6051 29.3597 16.5555 29.2419L19.3206 28.0782ZM31.4997 39C31.4997 38.7239 31.7235 38.5 31.9997 38.5L31.9997 41.5C33.3804 41.5 34.4997 40.3807 34.4997 39L31.4997 39ZM33.0779 33.6791C32.1783 34.0577 31.4997 34.9466 31.4997 36.0244L34.4997 36.0244C34.4997 36.2539 34.3594 36.3946 34.2416 36.4442L33.0779 33.6791ZM41.024 26.5C39.9463 26.5 39.0574 27.1786 38.6788 28.0782L41.4439 29.2419C41.3943 29.3597 41.2536 29.5 41.024 29.5L41.024 26.5ZM43.5 27C43.5 26.7239 43.7239 26.5 44 26.5L44 29.5C45.3807 29.5 46.5 28.3807 46.5 27L43.5 27ZM38.6788 19.9218C39.0574 20.8214 39.9463 21.5 41.024 21.5L41.024 18.5C41.2536 18.5 41.3943 18.6403 41.4439 18.7581L38.6788 19.9218ZM31.4997 11.9756C31.4997 13.0534 32.1783 13.9423 33.0779 14.3209L34.2416 11.5558C34.3594 11.6054 34.4997 11.7461 34.4997 11.9756L31.4997 11.9756ZM26.4997 36.0244C26.4997 34.9466 25.8211 34.0577 24.9215 33.6791L23.7578 36.4442C23.6399 36.3946 23.4997 36.2539 23.4997 36.0244L26.4997 36.0244ZM25.9997 6.5C24.619 6.5 23.4997 7.61929 23.4997 9L26.4997 9C26.4997 9.27614 26.2758 9.5 25.9997 9.5L25.9997 6.5ZM44 21.5C43.7239 21.5 43.5 21.2761 43.5 21L46.5 21C46.5 19.6193 45.3807 18.5 44 18.5L44 21.5ZM25.9997 38.5C26.2758 38.5 26.4997 38.7239 26.4997 39L23.4997 39C23.4997 40.3807 24.619 41.5 25.9997 41.5L25.9997 38.5ZM31.9997 9.5C31.7235 9.5 31.4997 9.27614 31.4997 9L34.4997 9C34.4997 7.61929 33.3804 6.5 31.9997 6.5L31.9997 9.5Z" fill="black"/>
<circle cx="29" cy="24" r="4" stroke="black" stroke-width="3"/>
</svg>
