<svg height="271" viewBox="0 0 271 271" width="271" xmlns="http://www.w3.org/2000/svg" xmlns:xlink="http://www.w3.org/1999/xlink"><mask id="a" fill="#fff"><path d="m.3523.41h149.9597v184.5899h-149.9597z" fill="#fff" fill-rule="evenodd"/></mask><mask id="b" fill="#fff"><path d="m0 .025h73.7057v9.411h-73.7057z" fill="#fff" fill-rule="evenodd"/></mask><g fill="#1d1d1b" fill-rule="evenodd" transform="translate(12.183594 41.386719)"><path d="m.3523 19.7645c29.807-24.134 82.405-29.174 119.885 5.086 38.143 34.868 39.896 93.115 5.876 129.901-34.496 37.299-90.637 38.989-125.544 11.202.458-.033.798-.079 1.137-.079 8.223-.004 16.446-.01 24.669.011.594.002 1.224.116 1.777.332 10.786 4.202 21.98 5.873 33.506 5.275 33.941-1.765 62.602-24.485 72.025-57.119 2.782-9.634 3.652-19.475 2.649-29.476-3.368-33.56-27.604-61.162-60.394-68.825-8.717-2.037-17.52-2.67-26.414-1.874-7.597.679-14.963 2.429-22.064 5.253-.48.191-1.018.337-1.53.338-8.264.021-16.527.015-24.791.014-.227 0-.455-.022-.787-.039" mask="url(#a)" transform="translate(96 .59)"/><path d="m137.5212 78.8071h-16.083v-11.19h16.078v-18.192h14.617c.034.187.097.376.097.566.055 15.583.133 31.165.137 46.748.002 4.62-.238 9.239-.299 13.86-.038 2.823.119 5.639 1.136 8.325 1.411 3.728 4.509 5.656 8.463 5.194 1.454-.17 2.905-.439 4.324-.793 1.373-.342 2.705-.852 4.167-1.325 1.844 3.261 3.684 6.512 5.566 9.837-3.161 2.44-6.574 4.105-10.383 4.895-5.904 1.225-11.645.43-17.16-1.819-5.982-2.44-9.191-7.188-10.114-13.424-.458-3.097-.501-6.271-.519-9.412-.06-10.553-.025-21.106-.027-31.659z"/><path d="m14.9587 157.4038v-2.868c1.318-.086 2.605-.195 3.894-.25 11.069-.473 22.138-.931 33.207-1.403 7.388-.314 14.778-.623 22.165-.975 7.672-.365 15.344-.769 23.014-1.183.922-.05 1.592.223 2.282.853 3.989 3.651 8.341 6.822 12.97 9.796-32.486-.918-64.923-2.699-97.532-3.97"/><path d="m14.9753 32.3535v-2.854c3.959-.167 7.835-.32 11.709-.497 8.739-.399 17.477-.827 26.216-1.209 5.021-.22 10.049-.328 15.069-.57 6.938-.334 13.869-.806 20.808-1.109 6.247-.273 12.501-.408 18.752-.585 1.466-.041 2.933-.006 4.583-.006-.371.275-.624.492-.905.664-4.401 2.706-8.488 5.82-12.294 9.314-.373.343-.998.611-1.492.59-6.082-.256-12.162-.572-18.243-.872-3.999-.198-7.998-.413-11.998-.585-12.495-.536-24.992-1.049-37.487-1.586-4.858-.209-9.714-.457-14.718-.695"/><path d="m6.1159 136.4873v-2.811c1.059-.075 2.063-.169 3.069-.212 11.278-.485 22.556-.941 33.832-1.448 9.433-.423 18.863-.898 28.293-1.358 3.43-.167 6.86-.336 10.287-.549.792-.05 1.224.195 1.64.897 1.808 3.044 3.695 6.042 5.637 9.191-27.553-1.235-55.088-2.47-82.758-3.71"/><path d="m6.1198 53.1695v-2.799c27.566-1.238 55.07-2.472 82.701-3.712-.16.315-.261.559-.399.782-1.769 2.84-3.567 5.664-5.296 8.527-.342.565-.657.822-1.328.782-5.384-.322-10.769-.632-16.156-.909-4.326-.223-8.653-.398-12.981-.588-11.025-.487-22.052-.972-33.078-1.456-4.166-.183-8.332-.36-12.498-.542-.282-.013-.563-.049-.965-.085"/><path d="m77.7995 67.8902c-.844 3.104-1.687 6.203-2.564 9.428-24.092-1.061-48.278-2.126-72.54-3.194v-2.902c25.083-1.113 50.091-2.222 75.104-3.332"/><path d="m2.6823 115.6333v-2.829c1.229-.082 2.396-.184 3.567-.234 11.15-.478 22.3-.935 33.45-1.419 8.898-.387 17.796-.794 26.692-1.209 2.612-.121 5.223-.29 7.831-.463.716-.047 1.044.119 1.235.924.686 2.881 1.503 5.731 2.261 8.558-24.961-1.107-49.939-2.215-75.036-3.328"/><path d="m-.0003 6.183v-2.906c24.586-1.085 49.111-2.167 73.706-3.252v9.411c-24.589-1.085-49.106-2.167-73.706-3.253" mask="url(#b)" transform="translate(0 88.59)"/><path d="m177.4626 81.52c-4.939-.012-8.531-3.648-8.519-8.624.011-4.614 3.951-8.55 8.519-8.513 4.764.039 8.636 3.951 8.614 8.703-.021 4.803-3.743 8.446-8.614 8.434"/></g></svg>