
<svg width="300" height="50" viewBox="0 0 300 50" fill="none" xmlns="http://www.w3.org/2000/svg">
    <path d="M275.814 45.8333H274.186C271.493 45.8333 269.303 43.6431 269.303 40.9505V40.1307C269.303 39.9151 269.167 39.7196 268.957 39.6329L268.927 39.6205C268.716 39.533 268.481 39.5747 268.329 39.7273L267.749 40.3071C266.827 41.2293 265.601 41.737 264.296 41.737C262.992 41.737 261.766 41.2293 260.844 40.3071L259.693 39.156C258.771 38.2338 258.263 37.0077 258.263 35.7034C258.263 34.3991 258.771 33.173 259.693 32.2508L260.273 31.6709C260.425 31.5187 260.467 31.2838 260.379 31.0727L260.367 31.0428C260.28 30.8323 260.085 30.6966 259.869 30.6966H259.049C256.357 30.6966 254.167 28.5063 254.167 25.8138V24.1862C254.167 21.4936 256.357 19.3034 259.049 19.3034H259.869C260.085 19.3034 260.28 19.1676 260.367 18.9572L260.379 18.9276C260.467 18.7165 260.425 18.4816 260.273 18.329L259.693 17.7495C258.771 16.8273 258.263 15.6012 258.263 14.2969C258.263 12.9926 258.771 11.7662 259.693 10.844L260.844 9.6932C261.766 8.771 262.992 8.26301 264.296 8.26301C265.601 8.26301 266.827 8.771 267.749 9.6932L268.329 10.2727C268.481 10.4253 268.716 10.4673 268.927 10.3795L268.957 10.3671C269.167 10.2803 269.303 10.0848 269.303 9.86931V9.04947C269.303 6.35693 271.494 4.16666 274.186 4.16666H275.814C278.506 4.16666 280.696 6.35693 280.696 9.04947V9.86931C280.696 10.0848 280.833 10.2803 281.043 10.3671L281.073 10.3795C281.284 10.4673 281.519 10.4253 281.671 10.2727L282.251 9.69288C283.173 8.77068 284.399 8.26301 285.703 8.26301C287.008 8.26301 288.234 8.77068 289.156 9.69288L290.307 10.844C291.229 11.7662 291.737 12.9923 291.737 14.2966C291.737 15.6009 291.229 16.827 290.307 17.7492L289.727 18.329C289.575 18.4813 289.533 18.7165 289.62 18.9276L289.633 18.9572C289.719 19.1673 289.915 19.3034 290.131 19.3034H290.95C293.643 19.3034 295.833 21.4936 295.833 24.1862V25.8138C295.833 28.506 293.643 30.6966 290.95 30.6966H290.131C289.915 30.6966 289.719 30.8323 289.633 31.0425L289.62 31.0724C289.533 31.2834 289.575 31.5184 289.727 31.6709C290.363 32.3067 290.363 33.3373 289.727 33.9728C289.091 34.6086 288.061 34.6083 287.425 33.9728C286.338 32.8847 286.019 31.2561 286.614 29.8237L286.624 29.7998C287.216 28.3671 288.592 27.4414 290.131 27.4414H290.95C291.848 27.4414 292.578 26.7112 292.578 25.8138V24.1862C292.578 23.2888 291.848 22.5586 290.95 22.5586H290.131C288.592 22.5586 287.216 21.6329 286.624 20.2001L286.612 20.1703C286.019 18.7436 286.337 17.115 287.425 16.0272L288.005 15.4477C288.312 15.1403 288.482 14.7315 288.482 14.2969C288.482 13.862 288.312 13.4532 288.005 13.1458L286.854 11.9947C286.547 11.6873 286.138 11.5182 285.703 11.5182C285.268 11.5182 284.86 11.6873 284.552 11.9947L283.973 12.5746C282.884 13.6624 281.256 13.9806 279.824 13.3855L279.8 13.3757C278.367 12.7841 277.441 11.4076 277.441 9.86931V9.04947C277.441 8.15206 276.711 7.42186 275.814 7.42186H274.186C273.289 7.42186 272.558 8.15206 272.558 9.04947V9.86931C272.558 11.4076 271.633 12.7841 270.2 13.3757L270.176 13.3855C268.743 13.9806 267.115 13.6624 266.027 12.5746L265.448 11.9951C265.14 11.6873 264.731 11.5182 264.296 11.5182C263.862 11.5182 263.453 11.6873 263.146 11.9951L261.995 13.1458C261.687 13.4532 261.518 13.862 261.518 14.2969C261.518 14.7315 261.687 15.1403 261.995 15.4477L262.574 16.0272C263.662 17.115 263.98 18.7436 263.385 20.1763L263.376 20.2001C262.784 21.6329 261.407 22.5586 259.869 22.5586H259.049C258.152 22.5586 257.422 23.2888 257.422 24.1862V25.8138C257.422 26.7112 258.152 27.4414 259.049 27.4414H259.869C261.407 27.4414 262.784 28.3671 263.376 29.7998L263.385 29.8237C263.98 31.2564 263.662 32.885 262.574 33.9728L261.995 34.5523C261.687 34.8597 261.518 35.2685 261.518 35.7031C261.518 36.138 261.687 36.5468 261.995 36.8542L263.146 38.0052C263.453 38.3126 263.862 38.4818 264.296 38.4818C264.731 38.4818 265.14 38.3126 265.448 38.0052L266.027 37.4254C267.115 36.3376 268.743 36.0194 270.176 36.6145L270.2 36.6243C271.633 37.2159 272.558 38.5924 272.558 40.1307V40.9505C272.558 41.8479 273.289 42.5781 274.186 42.5781H275.814C276.711 42.5781 277.441 41.8479 277.441 40.9505V40.1307C277.441 38.5924 278.367 37.2159 279.8 36.6243L279.824 36.6145C281.256 36.0194 282.885 36.3376 283.973 37.4254L284.552 38.0049C284.86 38.3126 285.268 38.4818 285.703 38.4818C286.138 38.4818 286.547 38.3126 286.854 38.0049C287.489 37.3695 288.52 37.3695 289.156 38.0049C289.791 38.6407 289.791 39.6713 289.156 40.3068C288.234 41.229 287.008 41.737 285.703 41.737C284.399 41.737 283.173 41.229 282.25 40.3068L281.671 39.7273C281.519 39.5747 281.284 39.5327 281.072 39.6205L281.042 39.6329C280.832 39.7196 280.696 39.9151 280.696 40.1307V40.9505C280.696 43.6431 278.506 45.8333 275.814 45.8333V45.8333ZM273.367 32.315C274.533 32.2374 275.62 31.6709 276.352 30.7608C276.372 30.7351 276.392 30.7087 276.411 30.6817L283.164 21.1436C283.683 20.41 283.51 19.394 282.776 18.8745C282.042 18.3551 281.027 18.529 280.507 19.2627L273.79 28.7508C273.571 29.0026 273.298 29.0572 273.151 29.0671C272.999 29.0769 272.705 29.0576 272.448 28.8128C272.44 28.8052 272.432 28.7975 272.424 28.7899L268.122 24.8608C267.458 24.2545 266.429 24.3009 265.823 24.9647C265.216 25.6285 265.263 26.6581 265.927 27.2643L270.217 31.1833C270.994 31.9164 272.028 32.3242 273.091 32.3242C273.183 32.3242 273.276 32.321 273.367 32.315V32.315Z" fill="#1945BB" stroke="white"/>
    <path fill-rule="evenodd" clip-rule="evenodd" d="M242.426 27.0875C242.532 26.1949 243.341 25.5568 244.234 25.6622C245.126 25.7677 245.765 26.5769 245.659 27.4697C244.422 37.9387 235.54 45.8333 225 45.8333C219.435 45.8333 214.203 43.6663 210.268 39.7314C206.334 35.7965 204.167 30.5648 204.167 25C204.167 19.4352 206.334 14.2034 210.268 10.2686C214.203 6.33376 219.435 4.16666 225 4.16666C225.899 4.16666 226.628 4.89536 226.628 5.79429C226.628 6.69322 225.899 7.42192 225 7.42192C223.111 7.42192 221.167 9.14429 219.665 12.1474C219.47 12.5374 219.286 12.9433 219.111 13.3625C219.947 13.4569 220.805 13.532 221.682 13.586C222.579 13.6412 223.262 14.4134 223.206 15.3106C223.153 16.1737 222.437 16.8381 221.583 16.8381C221.55 16.8381 221.516 16.837 221.482 16.8349C220.311 16.7627 219.165 16.6546 218.058 16.5135C217.505 18.6219 217.166 20.9443 217.06 23.3723H225C225.899 23.3723 226.627 24.101 226.627 24.9999V32.998C228.46 33.0493 230.249 33.1866 231.948 33.4029C232.048 33.0183 232.142 32.6255 232.228 32.2245C232.418 31.3459 233.284 30.7877 234.163 30.9774C235.041 31.1672 235.6 32.0334 235.41 32.912C235.336 33.2561 235.257 33.5956 235.173 33.9302C236.705 34.2407 238.124 34.6222 239.391 35.0687C241.001 32.765 242.076 30.0487 242.426 27.0875ZM216.754 10.6915C217.054 10.0916 217.371 9.53138 217.703 9.00952C215.955 9.81037 214.36 10.8898 212.975 12.1905C213.853 12.4445 214.802 12.6698 215.808 12.8637C216.095 12.1042 216.411 11.378 216.754 10.6915ZM214.835 15.987C213.309 15.6785 211.899 15.3009 210.647 14.8629C208.912 17.3124 207.788 20.2234 207.498 23.3723H213.802C213.907 20.781 214.258 18.283 214.835 15.987ZM213.802 26.6275H207.498C207.786 29.7484 208.892 32.6354 210.601 35.0713C211.867 34.6248 213.285 34.2432 214.816 33.9325C214.25 31.6587 213.905 29.1888 213.802 26.6275ZM215.777 37.0548C214.76 37.2523 213.798 37.4832 212.907 37.7452C214.307 39.0748 215.926 40.1762 217.703 40.9903C217.371 40.4684 217.054 39.9083 216.754 39.3083C216.398 38.5973 216.072 37.844 215.777 37.0548ZM219.665 37.8525C220.736 39.994 222.032 41.4835 223.372 42.1623V36.2543C221.895 36.2974 220.454 36.399 219.076 36.5548C219.261 37.0035 219.458 37.4367 219.665 37.8525ZM218.037 33.4046C219.741 33.1872 221.534 33.0494 223.372 32.998V26.6275H217.06C217.164 29.0242 217.497 31.3179 218.037 33.4046ZM226.627 42.1628C227.623 41.6548 228.445 40.7645 229.032 39.9747C229.739 39.0218 230.37 37.8688 230.91 36.5533C229.537 36.3983 228.1 36.2972 226.627 36.2542V42.1628ZM234.209 37.0522C233.66 38.5201 233.01 39.8467 232.275 40.9985C234.057 40.1851 235.683 39.0816 237.09 37.7443C236.195 37.4814 235.23 37.25 234.209 37.0522Z" fill="#1945BB"/>
    <path d="M242.242 9.36894H225.79V12.4352H232.155V25H235.77L235.77 12.4352H242.242V9.36894Z" fill="#1945BB"/>
    <path fill-rule="evenodd" clip-rule="evenodd" d="M250.255 15.4292H245.019V13.4386H243.949V15.4292H238.713V16.4999H240.679C241.442 18.7728 242.502 20.4356 243.697 21.6691C243.594 21.7542 243.491 21.8363 243.387 21.9156C241.834 23.102 240.157 23.6671 238.713 24.0627L239.337 25C240.758 24.5926 242.448 23.9804 244.037 22.7664C244.187 22.6517 244.336 22.5318 244.484 22.4064C244.632 22.5318 244.781 22.6516 244.931 22.7663C246.52 23.9804 248.21 24.5926 249.631 25L250.255 24.0626C248.811 23.667 247.134 23.1019 245.581 21.9154C245.477 21.8362 245.374 21.7541 245.271 21.669C246.466 20.4355 247.526 18.7727 248.288 16.4999H250.255V15.4292ZM247.155 16.4999H241.813C242.518 18.4605 243.455 19.8856 244.484 20.9426C245.513 19.8856 246.45 18.4605 247.155 16.4999Z" fill="#1945BB"/>
    <path fill-rule="evenodd" clip-rule="evenodd" d="M242.426 27.0875C242.532 26.1949 243.341 25.5568 244.234 25.6622C245.126 25.7677 245.765 26.5769 245.659 27.4697C244.422 37.9387 235.54 45.8333 225 45.8333C219.435 45.8333 214.203 43.6663 210.268 39.7314C206.334 35.7965 204.167 30.5648 204.167 25C204.167 19.4352 206.334 14.2034 210.268 10.2686C214.203 6.33376 219.435 4.16666 225 4.16666C225.899 4.16666 226.628 4.89536 226.628 5.79429C226.628 6.69322 225.899 7.42192 225 7.42192C223.111 7.42192 221.167 9.14429 219.665 12.1474C219.47 12.5374 219.286 12.9433 219.111 13.3625C219.947 13.4569 220.805 13.532 221.682 13.586C222.579 13.6412 223.262 14.4134 223.206 15.3106C223.153 16.1737 222.437 16.8381 221.583 16.8381C221.55 16.8381 221.516 16.837 221.482 16.8349C220.311 16.7627 219.165 16.6546 218.058 16.5135C217.505 18.6219 217.166 20.9443 217.06 23.3723H225C225.899 23.3723 226.627 24.101 226.627 24.9999V32.998C228.46 33.0493 230.249 33.1866 231.948 33.4029C232.048 33.0183 232.142 32.6255 232.228 32.2245C232.418 31.3459 233.284 30.7877 234.163 30.9774C235.041 31.1672 235.6 32.0334 235.41 32.912C235.336 33.2561 235.257 33.5956 235.173 33.9302C236.705 34.2407 238.124 34.6222 239.391 35.0687C241.001 32.765 242.076 30.0487 242.426 27.0875ZM216.754 10.6915C217.054 10.0916 217.371 9.53138 217.703 9.00952C215.955 9.81037 214.36 10.8898 212.975 12.1905C213.853 12.4445 214.802 12.6698 215.808 12.8637C216.095 12.1042 216.411 11.378 216.754 10.6915ZM214.835 15.987C213.309 15.6785 211.899 15.3009 210.647 14.8629C208.912 17.3124 207.788 20.2234 207.498 23.3723H213.802C213.907 20.781 214.258 18.283 214.835 15.987ZM213.802 26.6275H207.498C207.786 29.7484 208.892 32.6354 210.601 35.0713C211.867 34.6248 213.285 34.2432 214.816 33.9325C214.25 31.6587 213.905 29.1888 213.802 26.6275ZM215.777 37.0548C214.76 37.2523 213.798 37.4832 212.907 37.7452C214.307 39.0748 215.926 40.1762 217.703 40.9903C217.371 40.4684 217.054 39.9083 216.754 39.3083C216.398 38.5973 216.072 37.844 215.777 37.0548ZM219.665 37.8525C220.736 39.994 222.032 41.4835 223.372 42.1623V36.2543C221.895 36.2974 220.454 36.399 219.076 36.5548C219.261 37.0035 219.458 37.4367 219.665 37.8525ZM218.037 33.4046C219.741 33.1872 221.534 33.0494 223.372 32.998V26.6275H217.06C217.164 29.0242 217.497 31.3179 218.037 33.4046ZM226.627 42.1628C227.623 41.6548 228.445 40.7645 229.032 39.9747C229.739 39.0218 230.37 37.8688 230.91 36.5533C229.537 36.3983 228.1 36.2972 226.627 36.2542V42.1628ZM234.209 37.0522C233.66 38.5201 233.01 39.8467 232.275 40.9985C234.057 40.1851 235.683 39.0816 237.09 37.7443C236.195 37.4814 235.23 37.25 234.209 37.0522Z" stroke="white"/>
    <path d="M242.242 9.36894H225.79V12.4352H232.155V25H235.77L235.77 12.4352H242.242V9.36894Z" stroke="white"/>
    <path fill-rule="evenodd" clip-rule="evenodd" d="M250.255 15.4292H245.019V13.4386H243.949V15.4292H238.713V16.4999H240.679C241.442 18.7728 242.502 20.4356 243.697 21.6691C243.594 21.7542 243.491 21.8363 243.387 21.9156C241.834 23.102 240.157 23.6671 238.713 24.0627L239.337 25C240.758 24.5926 242.448 23.9804 244.037 22.7664C244.187 22.6517 244.336 22.5318 244.484 22.4064C244.632 22.5318 244.781 22.6516 244.931 22.7663C246.52 23.9804 248.21 24.5926 249.631 25L250.255 24.0626C248.811 23.667 247.134 23.1019 245.581 21.9154C245.477 21.8362 245.374 21.7541 245.271 21.669C246.466 20.4355 247.526 18.7727 248.288 16.4999H250.255V15.4292ZM247.155 16.4999H241.813C242.518 18.4605 243.455 19.8856 244.484 20.9426C245.513 19.8856 246.45 18.4605 247.155 16.4999Z" stroke="white"/>
    <path d="M195.079 36.8815V8.23566C195.079 7.78708 194.713 7.4218 194.265 7.4218H190.684C190.235 7.4218 189.871 7.78708 189.871 8.23566V42.5782H196.706C197.605 42.5782 198.333 43.3068 198.333 44.2056C198.333 45.1047 197.605 45.8333 196.706 45.8333H158.298C157.399 45.8333 156.67 45.1047 156.67 44.2056V32.5683C156.67 30.3248 158.495 28.4993 160.739 28.4993H164.319C166.563 28.4993 168.388 30.3248 168.388 32.5683V36.8815C168.388 37.7805 167.659 38.5092 166.76 38.5092C165.861 38.5092 165.133 37.7805 165.133 36.8815V32.5683C165.133 32.1197 164.768 31.7544 164.319 31.7544H160.739C160.29 31.7544 159.925 32.1197 159.925 32.5683V42.5782H171.643V21.2565C171.643 19.0127 173.468 17.1875 175.712 17.1875H179.292C181.535 17.1875 183.361 19.0127 183.361 21.2565V36.8815C183.361 37.7805 182.632 38.5092 181.733 38.5092C180.834 38.5092 180.106 37.7805 180.106 36.8815V21.2565C180.106 20.8076 179.741 20.4427 179.292 20.4427H175.712C175.263 20.4427 174.898 20.8076 174.898 21.2565V42.5782H186.616V8.23566C186.616 5.99213 188.441 4.16666 190.684 4.16666H194.265C196.508 4.16666 198.333 5.99213 198.333 8.23566V36.8815C198.333 37.7805 197.605 38.5092 196.706 38.5092C195.807 38.5092 195.079 37.7805 195.079 36.8815ZM163.15 18.7336H160.727C160.327 18.7336 159.922 18.4821 159.922 18.0014C159.922 17.1023 159.193 16.3737 158.294 16.3737C157.395 16.3737 156.667 17.1023 156.667 18.0014C156.667 20.1871 158.371 21.9092 160.574 21.9852V22.8839C160.574 23.783 161.303 24.5117 162.202 24.5117C163.101 24.5117 163.829 23.783 163.829 22.8839V21.9413C166.068 21.6285 167.737 19.7871 167.737 17.4924V17.35C167.737 14.7924 165.679 12.7116 163.15 12.7116H161.659C160.917 12.7116 160.336 12.1454 160.336 11.4221V11.3042C160.336 10.5755 160.905 10.0262 161.659 10.0262H163.069C163.484 10.0262 163.912 10.3034 163.912 10.7679C163.912 11.6669 164.641 12.3956 165.54 12.3956C166.439 12.3956 167.167 11.6669 167.167 10.7679C167.167 8.81713 165.727 7.18972 163.829 6.84096V5.79438C163.829 4.89532 163.101 4.16666 162.202 4.16666C161.303 4.16666 160.574 4.89532 160.574 5.79438V6.89692C159.769 7.08703 159.031 7.48856 158.433 8.07416C157.561 8.92713 157.081 10.0742 157.081 11.3042V11.4221C157.081 12.6515 157.56 13.7995 158.429 14.655C159.289 15.501 160.436 15.9667 161.659 15.9667H163.15C163.872 15.9667 164.482 16.6003 164.482 17.35V17.4924C164.482 18.2001 163.909 18.7336 163.15 18.7336Z" fill="#1945BB" stroke="white"/>
    <path d="M124.105 44.2057C124.105 45.1047 123.376 45.8333 122.477 45.8333H112.305C108.715 45.8333 105.794 42.9128 105.794 39.3229V21.2566C105.794 20.3576 106.523 19.629 107.422 19.629C108.321 19.629 109.05 20.3576 109.05 21.2566V39.3229C109.05 41.1177 110.51 42.5781 112.305 42.5781H122.477C123.376 42.5781 124.105 43.3067 124.105 44.2057V44.2057ZM145.833 9.04951V13.9324C145.833 14.831 145.105 15.56 144.206 15.56V22.1515C144.206 23.0505 143.477 23.7791 142.578 23.7791C141.679 23.7791 140.951 23.0505 140.951 22.1515V15.56H105.794C104.895 15.56 104.167 14.831 104.167 13.9324V9.04951C104.167 6.35695 106.357 4.16666 109.05 4.16666H140.951C143.643 4.16666 145.833 6.35695 145.833 9.04951ZM107.422 12.3047H142.578V9.04951C142.578 8.15209 141.848 7.42189 140.951 7.42189H109.05C108.152 7.42189 107.422 8.15209 107.422 9.04951V12.3047ZM128.581 22.0701C129.48 22.0701 130.208 21.3415 130.208 20.4428C130.208 19.5438 129.48 18.8152 128.581 18.8152H121.257C120.358 18.8152 119.629 19.5438 119.629 20.4428C119.629 21.3415 120.358 22.0701 121.257 22.0701H128.581ZM144.501 34.9553C143.617 34.7922 142.768 35.3765 142.605 36.2606C141.93 39.9211 138.733 42.5781 135.003 42.5781C130.74 42.5781 127.272 39.1099 127.272 34.8469C127.272 30.584 130.74 27.1157 135.003 27.1157C135.711 27.1157 136.413 27.2114 137.088 27.3999C137.953 27.6418 138.852 27.1358 139.093 26.2698C139.335 25.4042 138.829 24.5065 137.963 24.2645C137.003 23.9966 136.007 23.8605 135.003 23.8605C128.945 23.8605 124.016 28.7891 124.016 34.8469C124.016 40.9047 128.945 45.8333 135.003 45.8333C140.302 45.8333 144.846 42.0558 145.806 36.8512C145.969 35.9672 145.385 35.1184 144.501 34.9553V34.9553ZM132.898 32.9637C132.263 32.3279 131.232 32.3279 130.597 32.9637C129.961 33.5992 129.961 34.6298 130.597 35.2656L132.993 37.6619C133.547 38.2163 134.277 38.4935 135.007 38.4935C135.732 38.4935 136.457 38.2201 137.011 37.672L144.123 30.6326C144.762 30.0003 144.767 28.9697 144.135 28.3307C143.502 27.6921 142.472 27.6867 141.833 28.319L135.008 35.0739L132.898 32.9637Z" fill="#1945BB" stroke="white"/>
    <path d="M81.9988 19.8225V18.8497C81.9988 17.26 80.7094 15.9668 79.125 15.9668H70.7124C69.128 15.9668 67.8386 17.26 67.8386 18.8497V19.8225C67.8386 21.9012 69.8598 23.6124 71.3357 24.862C71.3895 24.9075 71.4422 24.9523 71.4937 24.9959C71.4394 25.0423 71.3834 25.0896 71.3262 25.138C69.8506 26.3876 67.8294 28.0988 67.8294 30.1775V31.1502C67.8294 31.2402 67.8364 31.3279 67.8504 31.4135C67.9836 32.8802 69.2164 34.0332 70.7124 34.0332H79.125C80.7094 34.0332 81.9988 32.74 81.9988 31.1502V30.1775C81.9988 28.0985 79.9773 26.3873 78.5017 25.138C78.446 25.0909 78.3917 25.0448 78.3389 25C78.3917 24.9548 78.446 24.9091 78.5017 24.862C79.9773 23.6127 81.9988 21.9015 81.9988 19.8225V19.8225ZM78.7436 30.1775V30.778H71.0846V30.1807C71.0846 30.1778 71.1113 29.8809 71.7204 29.2022C72.2169 28.6491 72.8613 28.1039 73.4297 27.6226C73.5772 27.4977 73.7183 27.3781 73.8515 27.2631C73.891 27.2344 73.9291 27.2039 73.9663 27.1715C74.4762 26.7246 74.81 26.1202 74.9187 25.4673C75.0274 26.1202 75.3612 26.7242 75.8714 27.1715C76.0342 27.3142 76.2109 27.464 76.3982 27.6223C76.9666 28.1036 77.6109 28.6491 78.1075 29.2022C78.7169 29.8809 78.7433 30.1775 78.7436 30.1775V30.1775ZM78.1075 20.7978C77.6109 21.3509 76.9666 21.8964 76.3982 22.3777C76.2109 22.536 76.0342 22.6857 75.8711 22.8288C75.3612 23.2757 75.0274 23.8797 74.9187 24.5327C74.81 23.8794 74.4762 23.2754 73.9663 22.8285C73.8032 22.6857 73.6262 22.536 73.4389 22.3774C72.8705 21.8961 72.2262 21.3509 71.7299 20.7978C71.1205 20.1191 71.0941 19.8225 71.0938 19.8225V19.222H78.7436V19.8193C78.7433 19.8222 78.7169 20.1188 78.1075 20.7978V20.7978ZM54.1667 15.0716V11.1654C54.1667 10.2664 54.8954 9.53775 55.7944 9.53775C56.6933 9.53775 57.422 10.2664 57.422 11.1654V13.8131C59.0235 11.2992 61.1502 9.14897 63.6755 7.51056C67.0477 5.32315 70.9635 4.16666 75.0001 4.16666C80.5648 4.16666 85.7966 6.33372 89.7315 10.2686C93.6663 14.2034 95.8334 19.4353 95.8334 25C95.8334 25.899 95.1048 26.6276 94.2058 26.6276C93.3068 26.6276 92.5782 25.899 92.5782 25C92.5782 15.3075 84.6926 7.42186 75.0001 7.42186C68.8422 7.42186 63.1291 10.6898 59.967 15.8854H62.142C63.041 15.8854 63.7696 16.614 63.7696 17.513C63.7696 18.412 63.041 19.1406 62.142 19.1406H58.2358C55.9921 19.1406 54.1667 17.3153 54.1667 15.0716V15.0716ZM95.8334 34.9284V38.7532C95.8334 39.6522 95.1048 40.3809 94.2058 40.3809C93.3068 40.3809 92.5782 39.6522 92.5782 38.7532V36.0591C90.9678 38.6283 88.8112 40.8234 86.2433 42.4894C82.8711 44.6768 78.9553 45.8333 74.9187 45.8333C69.3572 45.8333 64.1387 43.665 60.2245 39.7279C56.3182 35.7984 54.1667 30.5682 54.1667 25C54.1667 24.101 54.8954 23.3724 55.7944 23.3724C56.6933 23.3724 57.422 24.101 57.422 25C57.422 34.6925 65.271 42.5781 74.9187 42.5781C81.0763 42.5781 86.7897 39.3102 89.9518 34.1146H87.7768C86.8778 34.1146 86.1492 33.386 86.1492 32.487C86.1492 31.588 86.8778 30.8594 87.7768 30.8594H91.7644C94.0081 30.8594 95.8334 32.6847 95.8334 34.9284Z" fill="#1945BB" stroke="white"/>
    <path fill-rule="evenodd" clip-rule="evenodd" d="M38.5092 28.9153H44.2058C45.1047 28.9153 45.8334 29.644 45.8334 30.5429V35.4766C45.8334 38.3459 43.5106 40.682 40.6467 40.7054C40.6432 40.7054 40.6398 40.7057 40.6364 40.7059C40.6326 40.7062 40.6289 40.7065 40.6251 40.7065H33.9519C33.053 40.7065 32.3243 39.9778 32.3243 39.0788C32.3243 38.1799 33.053 37.4512 33.9519 37.4512H35.6423C35.3927 36.8415 35.254 36.1752 35.254 35.4767V9.39639C35.254 8.30761 34.3682 7.42186 33.2795 7.42186H33.1595C32.0707 7.42186 31.185 8.30761 31.185 9.39639V14.0046C31.185 14.9036 30.4563 15.6322 29.5574 15.6322H13.1186V34.196C13.1186 35.5167 13.9067 36.6974 15.1264 37.204C15.9565 37.5488 16.3499 38.5014 16.0051 39.3315C15.745 39.9574 15.1395 40.3351 14.5014 40.3351C14.2932 40.3351 14.0819 40.295 13.8777 40.2102C11.439 39.1973 9.86336 36.8366 9.86336 34.196V15.6322H5.79435C4.89543 15.6322 4.16675 14.9036 4.16675 14.0046V10.6771C4.16675 7.08723 7.08732 4.16666 10.6772 4.16666H33.2795C36.1632 4.16666 38.5092 6.51269 38.5092 9.39639V28.9153ZM27.9298 12.377V9.39639C27.9298 8.69815 28.0673 8.03132 28.3167 7.42186H10.6772C8.88224 7.42186 7.42196 8.88215 7.42196 10.6771V12.377H27.9298ZM40.6037 37.4512C41.6925 37.4512 42.5782 36.5654 42.5782 35.4766V32.1705H38.5092V35.4766C38.5092 36.5654 39.3949 37.4512 40.4836 37.4512H40.6037Z" fill="#1945BB"/>
    <path fill-rule="evenodd" clip-rule="evenodd" d="M16.7807 30.6152C16.7807 26.4869 20.1393 23.1282 24.2677 23.1282C28.396 23.1282 31.7546 26.4869 31.7546 30.6152C31.7546 32.9178 30.7096 34.9805 29.0691 36.3551V44.2057C29.0691 44.7519 28.7951 45.2618 28.3395 45.5632C28.0692 45.742 27.7562 45.8333 27.4413 45.8333C27.2257 45.8333 27.0093 45.7904 26.8049 45.7036L24.186 44.5906L21.5671 45.7024C21.0645 45.9158 20.4884 45.8631 20.0328 45.5615C19.5773 45.2602 19.3035 44.7504 19.3035 44.2043V36.2146C17.7571 34.842 16.7807 32.8406 16.7807 30.6152ZM24.8229 41.3244L25.8139 41.7455V37.9412C25.3148 38.0465 24.7976 38.1022 24.2677 38.1022C23.6799 38.1022 23.1078 38.0339 22.5587 37.9052V41.7451L23.5501 41.3241C23.957 41.1514 24.4163 41.1516 24.8229 41.3244ZM20.0359 30.6152C20.0359 32.9486 21.9342 34.847 24.2677 34.847C26.6011 34.847 28.4994 32.9486 28.4994 30.6152C28.4994 28.2818 26.6011 26.3835 24.2677 26.3835C21.9342 26.3835 20.0359 28.2818 20.0359 30.6152Z" fill="#1945BB"/>
    <path fill-rule="evenodd" clip-rule="evenodd" d="M38.5092 28.9153H44.2058C45.1047 28.9153 45.8334 29.644 45.8334 30.5429V35.4766C45.8334 38.3459 43.5106 40.682 40.6467 40.7054C40.6432 40.7054 40.6398 40.7057 40.6364 40.7059C40.6326 40.7062 40.6289 40.7065 40.6251 40.7065H33.9519C33.053 40.7065 32.3243 39.9778 32.3243 39.0788C32.3243 38.1799 33.053 37.4512 33.9519 37.4512H35.6423C35.3927 36.8415 35.254 36.1752 35.254 35.4767V9.39639C35.254 8.30761 34.3682 7.42186 33.2795 7.42186H33.1595C32.0707 7.42186 31.185 8.30761 31.185 9.39639V14.0046C31.185 14.9036 30.4563 15.6322 29.5574 15.6322H13.1186V34.196C13.1186 35.5167 13.9067 36.6974 15.1264 37.204C15.9565 37.5488 16.3499 38.5014 16.0051 39.3315C15.745 39.9574 15.1395 40.3351 14.5014 40.3351C14.2932 40.3351 14.0819 40.295 13.8777 40.2102C11.439 39.1973 9.86336 36.8366 9.86336 34.196V15.6322H5.79435C4.89543 15.6322 4.16675 14.9036 4.16675 14.0046V10.6771C4.16675 7.08723 7.08732 4.16666 10.6772 4.16666H33.2795C36.1632 4.16666 38.5092 6.51269 38.5092 9.39639V28.9153ZM27.9298 12.377V9.39639C27.9298 8.69815 28.0673 8.03132 28.3167 7.42186H10.6772C8.88224 7.42186 7.42196 8.88215 7.42196 10.6771V12.377H27.9298ZM40.6037 37.4512C41.6925 37.4512 42.5782 36.5654 42.5782 35.4766V32.1705H38.5092V35.4766C38.5092 36.5654 39.3949 37.4512 40.4836 37.4512H40.6037Z" stroke="white"/>
    <path fill-rule="evenodd" clip-rule="evenodd" d="M16.7807 30.6152C16.7807 26.4869 20.1393 23.1282 24.2677 23.1282C28.396 23.1282 31.7546 26.4869 31.7546 30.6152C31.7546 32.9178 30.7096 34.9805 29.0691 36.3551V44.2057C29.0691 44.7519 28.7951 45.2618 28.3395 45.5632C28.0692 45.742 27.7562 45.8333 27.4413 45.8333C27.2257 45.8333 27.0093 45.7904 26.8049 45.7036L24.186 44.5906L21.5671 45.7024C21.0645 45.9158 20.4884 45.8631 20.0328 45.5615C19.5773 45.2602 19.3035 44.7504 19.3035 44.2043V36.2146C17.7571 34.842 16.7807 32.8406 16.7807 30.6152ZM24.8229 41.3244L25.8139 41.7455V37.9412C25.3148 38.0465 24.7976 38.1022 24.2677 38.1022C23.6799 38.1022 23.1078 38.0339 22.5587 37.9052V41.7451L23.5501 41.3241C23.957 41.1514 24.4163 41.1516 24.8229 41.3244ZM20.0359 30.6152C20.0359 32.9486 21.9342 34.847 24.2677 34.847C26.6011 34.847 28.4994 32.9486 28.4994 30.6152C28.4994 28.2818 26.6011 26.3835 24.2677 26.3835C21.9342 26.3835 20.0359 28.2818 20.0359 30.6152Z" stroke="white"/>
</svg>
